<svg width="337" height="400" viewBox="0 0 337 400" fill="none" xmlns="http://www.w3.org/2000/svg">
<g filter="url(#filter0_b_301_219)">
<path d="M3.44807 33.6112C1.64482 16.0335 16.083 1.0563 33.715 2.21433L308.72 20.2761C324.306 21.2997 336.175 34.6595 335.355 50.2571L320.23 338.24C319.512 351.918 309.179 363.158 295.609 365.022L70.2996 395.97C54.3013 398.167 39.667 386.667 38.019 370.603L3.44807 33.6112Z" fill="url(#paint0_linear_301_219)" fill-opacity="0.48"/>
<path d="M3.44807 33.6112C1.64482 16.0335 16.083 1.0563 33.715 2.21433L308.72 20.2761C324.306 21.2997 336.175 34.6595 335.355 50.2571L320.23 338.24C319.512 351.918 309.179 363.158 295.609 365.022L70.2996 395.97C54.3013 398.167 39.667 386.667 38.019 370.603L3.44807 33.6112Z" fill="url(#paint1_radial_301_219)" fill-opacity="0.4"/>
<path d="M33.6448 3.28247L308.65 21.3443C323.651 22.3295 335.075 35.1883 334.286 50.201L319.161 338.183C318.47 351.349 308.524 362.168 295.463 363.962L70.1539 394.909C54.7556 397.024 40.6701 385.955 39.0839 370.494L4.51293 33.502C2.7773 16.5834 16.674 2.16787 33.6448 3.28247Z" stroke="url(#paint2_linear_301_219)" stroke-opacity="0.24" stroke-width="2.14089"/>
<path d="M33.6448 3.28247L308.65 21.3443C323.651 22.3295 335.075 35.1883 334.286 50.201L319.161 338.183C318.47 351.349 308.524 362.168 295.463 363.962L70.1539 394.909C54.7556 397.024 40.6701 385.955 39.0839 370.494L4.51293 33.502C2.7773 16.5834 16.674 2.16787 33.6448 3.28247Z" stroke="url(#paint3_linear_301_219)" stroke-width="2.14089"/>
</g>
<defs>
<filter id="filter0_b_301_219" x="-8.12242" y="-9.26671" width="354.936" height="416.924" filterUnits="userSpaceOnUse" color-interpolation-filters="sRGB">
<feFlood flood-opacity="0" result="BackgroundImageFix"/>
<feGaussianBlur in="BackgroundImageFix" stdDeviation="5.70904"/>
<feComposite in2="SourceAlpha" operator="in" result="effect1_backgroundBlur_301_219"/>
<feBlend mode="normal" in="SourceGraphic" in2="effect1_backgroundBlur_301_219" result="shape"/>
</filter>
<linearGradient id="paint0_linear_301_219" x1="12.3098" y1="22.1226" x2="407.626" y2="144.476" gradientUnits="userSpaceOnUse">
<stop stop-color="#54CEEC"/>
<stop offset="1" stop-color="#599CF6"/>
</linearGradient>
<radialGradient id="paint1_radial_301_219" cx="0" cy="0" r="1" gradientUnits="userSpaceOnUse" gradientTransform="translate(287.501 57.2229) rotate(127.917) scale(197.172 208.728)">
<stop stop-color="white"/>
<stop offset="1" stop-color="white" stop-opacity="0"/>
</radialGradient>
<linearGradient id="paint2_linear_301_219" x1="12.3098" y1="22.1226" x2="407.626" y2="144.476" gradientUnits="userSpaceOnUse">
<stop stop-color="#54CEEC"/>
<stop offset="1" stop-color="#599CF6"/>
</linearGradient>
<linearGradient id="paint3_linear_301_219" x1="336.833" y1="22.492" x2="72.2666" y2="417.234" gradientUnits="userSpaceOnUse">
<stop offset="0.0989583" stop-color="white"/>
<stop offset="0.286458" stop-color="white" stop-opacity="0.3"/>
<stop offset="0.635417" stop-color="white" stop-opacity="0.34104"/>
<stop offset="0.84375" stop-color="white"/>
<stop offset="0.911458" stop-color="white" stop-opacity="0.0982659"/>
<stop offset="1" stop-color="white" stop-opacity="0"/>
</linearGradient>
</defs>
</svg>
