<svg width="50" height="51" viewBox="0 0 50 51" fill="none" xmlns="http://www.w3.org/2000/svg">
<path d="M49.8684 25.2762C49.8684 30.2078 48.406 35.0285 45.6662 39.1289C42.9264 43.2293 39.0322 46.4252 34.4761 48.3124C29.92 50.1996 24.9065 50.6934 20.0698 49.7313C15.233 48.7692 10.7902 46.3945 7.30307 42.9074C3.81596 39.4203 1.4412 34.9774 0.479112 30.1407C-0.48298 25.3039 0.0108114 20.2905 1.89802 15.7343C3.78523 11.1782 6.98111 7.28401 11.0815 4.5442C15.1819 1.8044 20.0027 0.342042 24.9342 0.342042C28.2088 0.34123 31.4516 0.985612 34.4771 2.23839C37.5026 3.49116 40.2516 5.32777 42.5672 7.64329C44.8827 9.9588 46.7193 12.7079 47.972 15.7334C49.2248 18.7589 49.8692 22.0016 49.8684 25.2762Z" fill="#307FE2"/>
<circle cx="24.9342" cy="25.2762" r="17.9969" fill="white"/>
<path d="M22.2841 21.7718C22.9001 21.0263 23.8327 20.5496 24.8765 20.5496C25.9202 20.5496 26.8528 21.0263 27.4688 21.7718C27.8744 22.2636 28.1317 22.8604 28.2109 23.4929C28.2901 24.1253 28.1878 24.7673 27.916 25.3438C27.6442 25.9203 27.2141 26.4077 26.6758 26.749C26.1375 27.0903 25.5132 27.2716 24.8759 27.2716C24.2385 27.2716 23.6142 27.0903 23.0759 26.749C22.5376 26.4077 22.1075 25.9203 21.8357 25.3438C21.5639 24.7673 21.4616 24.1253 21.5408 23.4929C21.62 22.8604 21.8773 22.2636 22.2829 21.7718H22.2841ZM29.4598 23.9107C29.4598 23.1383 29.2691 22.4098 28.9318 21.7718H34.0431C34.5294 21.7718 34.9957 21.965 35.3395 22.3088C35.6833 22.6526 35.8765 23.1189 35.8765 23.6052V24.2163C35.8765 26.1559 34.4025 28.1421 31.8248 28.8412C31.5599 28.3653 31.1726 27.9689 30.7031 27.693C30.2336 27.4171 29.6988 27.2717 29.1542 27.2718H27.9931C28.4564 26.8432 28.8259 26.3233 29.0783 25.7448C29.3307 25.1663 29.4606 24.5419 29.4598 23.9107ZM29.1542 28.4941C29.3952 28.4934 29.6339 28.5404 29.8566 28.6323C30.0793 28.7242 30.2817 28.8592 30.452 29.0296C30.6224 29.2 30.7574 29.4023 30.8493 29.625C30.9412 29.8478 30.9882 30.0865 30.9876 30.3274V30.9385C30.9876 33.3475 28.7142 35.8274 24.8765 35.8274C21.0387 35.8274 18.7654 33.3475 18.7654 30.9385V30.3274C18.7647 30.0865 18.8117 29.8478 18.9036 29.625C18.9955 29.4023 19.1305 29.2 19.3009 29.0296C19.4713 28.8592 19.6736 28.7242 19.8963 28.6323C20.1191 28.5404 20.3577 28.4934 20.5987 28.4941H29.1542ZM13.8765 24.2163C13.8765 26.1559 15.3505 28.1421 17.9281 28.8412C18.193 28.3653 18.5803 27.9689 19.0498 27.693C19.5193 27.4171 20.0541 27.2717 20.5987 27.2718H21.7598C21.2965 26.8432 20.9271 26.3233 20.6746 25.7448C20.4222 25.1663 20.2923 24.5419 20.2931 23.9107C20.2931 23.1383 20.4838 22.4098 20.8224 21.7718H15.7098C15.2236 21.7718 14.7573 21.965 14.4134 22.3088C14.0696 22.6526 13.8765 23.1189 13.8765 23.6052V24.2163ZM23.3487 17.1885C23.3487 16.2971 22.9946 15.4422 22.3642 14.8118C21.7339 14.1815 20.879 13.8274 19.9876 13.8274C19.0962 13.8274 18.2412 14.1815 17.6109 14.8118C16.9806 15.4422 16.6265 16.2971 16.6265 17.1885C16.6265 18.0799 16.9806 18.9348 17.6109 19.5652C18.2412 20.1955 19.0962 20.5496 19.9876 20.5496C20.879 20.5496 21.7339 20.1955 22.3642 19.5652C22.9946 18.9348 23.3487 18.0799 23.3487 17.1885ZM33.1265 17.1885C33.1265 16.2971 32.7723 15.4422 32.142 14.8118C31.5117 14.1815 30.6568 13.8274 29.7654 13.8274C28.8739 13.8274 28.019 14.1815 27.3887 14.8118C26.7584 15.4422 26.4042 16.2971 26.4042 17.1885C26.4042 18.0799 26.7584 18.9348 27.3887 19.5652C28.019 20.1955 28.8739 20.5496 29.7654 20.5496C30.6568 20.5496 31.5117 20.1955 32.142 19.5652C32.7723 18.9348 33.1265 18.0799 33.1265 17.1885Z" fill="#307FE2"/>
</svg>
