<svg width="48" height="48" viewBox="0 0 48 48" fill="none" xmlns="http://www.w3.org/2000/svg">
<path d="M-3.92374e-05 24.0262C0.094299 33.3867 4.35001 40.3049 12.3059 44.9904C15.0353 46.5205 18.0573 47.4564 21.1738 47.7367C25.3927 48.2575 29.6743 47.6536 33.5845 45.9862C37.6868 44.2306 41.202 41.3395 43.7165 37.6533C46.2309 33.9671 47.6398 29.6392 47.7773 25.1792C47.9955 21.6423 47.4373 18.1005 46.142 14.802C42.6515 6.87756 36.7082 1.89857 28.1443 0.38915C25.0186 -0.181787 21.8104 -0.123983 18.7073 0.559202C15.6042 1.24239 12.6683 2.5372 10.0714 4.36804C7.47445 6.19888 5.26847 8.52901 3.5824 11.2222C1.89632 13.9154 0.763972 16.9176 0.251521 20.0535C0.0943205 21.3615 0.0103431 22.6773 -3.9236e-05 23.9947M23.7628 33.4286C21.7166 33.5508 19.691 32.9621 18.0291 31.762C16.9148 30.9867 15.9651 29.9984 15.2347 28.8542C14.5042 27.71 14.0076 26.4325 13.7734 25.0953C13.4514 23.4346 13.5484 21.7198 14.0557 20.106C14.563 18.4922 15.4646 17.0302 16.6788 15.8524C17.8931 14.6745 19.3818 13.8179 21.0103 13.36C22.6388 12.902 24.3558 12.8573 26.006 13.2297C26.0708 13.2483 26.1298 13.2831 26.1774 13.3308C26.2251 13.3784 26.2599 13.4374 26.2785 13.5022C26.2833 13.567 26.2745 13.6322 26.2529 13.6935C26.2312 13.7549 26.1971 13.8111 26.1527 13.8586C25.7544 14.2464 25.3247 14.5923 24.9263 14.9802C24.1692 15.7055 23.6533 16.6459 23.4484 17.6741C23.2028 18.8374 23.3263 20.0483 23.8016 21.1381C24.277 22.2279 25.0806 23.1423 26.1003 23.7537C27.1135 24.3749 28.2975 24.6588 29.4822 24.5646C30.6669 24.4704 31.7913 24.003 32.6936 23.2296C33.008 22.9675 33.3015 22.674 33.6369 22.4224C33.6774 22.3879 33.7264 22.365 33.7788 22.3561C33.8312 22.3473 33.8851 22.3528 33.9346 22.3722C33.9841 22.3916 34.0274 22.424 34.0599 22.4661C34.0924 22.5082 34.1129 22.5583 34.1191 22.6111C34.1786 22.8795 34.2067 23.1539 34.203 23.4287C34.1942 24.7805 33.9135 26.1167 33.3775 27.3577C32.8416 28.5987 32.0613 29.7191 31.0832 30.6522C30.1051 31.5853 28.9492 32.312 27.6843 32.789C26.4195 33.266 25.0716 33.4835 23.7209 33.4286" fill="white"/>
</svg>
