<svg width="50" height="51" viewBox="0 0 50 51" fill="none" xmlns="http://www.w3.org/2000/svg">
<path d="M49.8684 25.4078C49.8684 30.3393 48.406 35.1601 45.6662 39.2605C42.9264 43.3609 39.0322 46.5568 34.4761 48.444C29.92 50.3312 24.9065 50.825 20.0698 49.8629C15.233 48.9008 10.7902 46.5261 7.30307 43.039C3.81596 39.5519 1.4412 35.109 0.479112 30.2722C-0.482979 25.4355 0.0108115 20.4221 1.89802 15.8659C3.78523 11.3098 6.98111 7.4156 11.0815 4.6758C15.1819 1.93599 20.0027 0.473634 24.9342 0.473634C28.2088 0.472822 31.4516 1.1172 34.4771 2.36998C37.5026 3.62275 40.2516 5.45936 42.5672 7.77488C44.8827 10.0904 46.7193 12.8394 47.972 15.865C49.2248 18.8905 49.8692 22.1332 49.8684 25.4078" fill="#307FE2"/>
<circle cx="24.9342" cy="25.4078" r="17.9969" fill="white"/>
<path d="M35.3605 21.6399H32.788L32.073 19.8524C31.3382 18.0146 29.5847 16.8274 27.6051 16.8274H22.148C20.1689 16.8274 18.4149 18.0146 17.6797 19.8524L16.9647 21.6399H14.3926C14.057 21.6399 13.8108 21.9553 13.8925 22.2806L14.1503 23.3118C14.2074 23.5413 14.4137 23.7024 14.6504 23.7024H15.5128C14.9357 24.2064 14.5641 24.939 14.5641 25.7649V27.8274C14.5641 28.5201 14.8287 29.1453 15.2516 29.6291V31.9524C15.2516 32.7117 15.8673 33.3274 16.6266 33.3274H18.0016C18.7608 33.3274 19.3766 32.7117 19.3766 31.9524V30.5774H30.3766V31.9524C30.3766 32.7117 30.9923 33.3274 31.7516 33.3274H33.1266C33.8858 33.3274 34.5016 32.7117 34.5016 31.9524V29.6291C34.9244 29.1457 35.1891 28.5205 35.1891 27.8274V25.7649C35.1891 24.939 34.8174 24.2064 34.2408 23.7024H35.1031C35.3399 23.7024 35.5462 23.5413 35.6033 23.3118L35.8611 22.2806C35.9423 21.9553 35.6961 21.6399 35.3605 21.6399ZM20.2329 20.8738C20.5462 20.0909 21.3046 19.5774 22.148 19.5774H27.6051C28.4486 19.5774 29.207 20.0909 29.5202 20.8738L30.3766 23.0149H19.3766L20.2329 20.8738ZM18.0016 27.8188C17.1766 27.8188 16.6266 27.2705 16.6266 26.4481C16.6266 25.6257 17.1766 25.0774 18.0016 25.0774C18.8266 25.0774 20.0641 26.311 20.0641 27.1335C20.0641 27.9559 18.8266 27.8188 18.0016 27.8188ZM31.7516 27.8188C30.9266 27.8188 29.6891 27.9559 29.6891 27.1335C29.6891 26.311 30.9266 25.0774 31.7516 25.0774C32.5766 25.0774 33.1266 25.6257 33.1266 26.4481C33.1266 27.2705 32.5766 27.8188 31.7516 27.8188Z" fill="#307FE2"/>
</svg>
