<svg width="50" height="50" viewBox="0 0 50 50" fill="none" xmlns="http://www.w3.org/2000/svg">
<path d="M49.8684 24.9342C49.8684 29.8657 48.406 34.6865 45.6662 38.7869C42.9264 42.8873 39.0322 46.0832 34.4761 47.9704C29.92 49.8576 24.9065 50.3514 20.0698 49.3893C15.233 48.4272 10.7902 46.0524 7.30307 42.5653C3.81596 39.0782 1.4412 34.6354 0.479112 29.7986C-0.482979 24.9619 0.0108115 19.9484 1.89802 15.3923C3.78523 10.8362 6.98111 6.94197 11.0815 4.20216C15.1819 1.46236 20.0027 7.65433e-07 24.9342 7.65433e-07C28.2088 -0.000810691 31.4516 0.643571 34.4771 1.89634C37.5026 3.14912 40.2516 4.98573 42.5672 7.30125C44.8827 9.61676 46.7193 12.3658 47.972 15.3913C49.2248 18.4169 49.8692 21.6596 49.8684 24.9342" fill="#307FE2"/>
<circle cx="24.9342" cy="24.9342" r="17.9969" fill="white"/>
<path d="M22.144 17.2611C22.144 17.0761 22.2175 16.8987 22.3483 16.7679C22.4791 16.6371 22.6565 16.5636 22.8415 16.5636H27.0268C27.2118 16.5636 27.3892 16.6371 27.5201 16.7679C27.6509 16.8987 27.7244 17.0761 27.7244 17.2611V19.3538H31.2121C31.3971 19.3538 31.5745 19.4273 31.7054 19.5581C31.8362 19.6889 31.9097 19.8663 31.9097 20.0514V24.9649L33.5824 25.6903C33.6714 25.7291 33.7513 25.7861 33.8171 25.8575C33.8828 25.929 33.9329 26.0134 33.9642 26.1053C33.9954 26.1972 34.0071 26.2946 33.9986 26.3913C33.99 26.4881 33.9613 26.5819 33.9144 26.6669L32.317 29.5422C32.0185 28.9953 31.6111 28.422 30.5146 28.422C29.305 28.422 28.9339 29.1209 28.6214 29.711C28.3926 30.1421 28.1959 30.5146 27.7244 30.5146C27.2528 30.5146 27.0547 30.1421 26.8273 29.711C26.5148 29.1195 26.1437 28.422 24.9342 28.422C23.7246 28.422 23.3535 29.1209 23.041 29.711C22.8136 30.1421 22.6155 30.5146 22.144 30.5146C21.6724 30.5146 21.4743 30.1421 21.2469 29.711C20.9344 29.1195 20.5633 28.422 19.3538 28.422C18.2572 28.422 17.8498 28.9967 17.5513 29.5422L15.9539 26.6683C15.9062 26.5832 15.8769 26.4891 15.8679 26.392C15.8589 26.2949 15.8703 26.1969 15.9014 26.1045C15.9326 26.0121 15.9828 25.9272 16.0488 25.8554C16.1148 25.7836 16.1951 25.7264 16.2845 25.6876L17.9587 24.9635V20.0514C17.9587 19.8663 18.0322 19.6889 18.163 19.5581C18.2938 19.4273 18.4712 19.3538 18.6562 19.3538H22.144V17.2611ZM26.3209 22.543L30.5146 24.3594V20.7489H19.3538V24.3594L23.5474 22.543C23.9851 22.3533 24.4571 22.2555 24.9342 22.2555C25.4112 22.2555 25.8832 22.3533 26.3209 22.543ZM23.5391 19.3538H26.3293V17.9587H23.5391V19.3538ZM19.4277 32.0074C19.9523 32.6352 20.827 33.3006 22.1314 33.3048H22.1551C22.6946 33.3028 23.2263 33.1757 23.7085 32.9337C24.1907 32.6916 24.6102 32.3411 24.9342 31.9097C25.0179 32.0213 25.1058 32.1218 25.195 32.2166C25.7308 32.7747 26.5511 33.3006 27.7118 33.3048H27.5221H27.7355C29.0413 33.3006 29.9161 32.6352 30.4406 32.0074C30.4783 31.9627 30.5132 31.9167 30.548 31.872C30.6011 31.932 30.6583 31.9934 30.7183 32.0534C31.3642 32.6993 32.4105 33.3048 34.0023 33.3048C34.1873 33.3048 34.3647 33.2313 34.4956 33.1005C34.6264 32.9697 34.6999 32.7923 34.6999 32.6073C34.6999 32.4223 34.6264 32.2448 34.4956 32.114C34.3647 31.9832 34.1873 31.9097 34.0023 31.9097C32.8039 31.9097 32.1064 31.4689 31.706 31.0671C31.4806 30.8453 31.3006 30.5819 31.1758 30.2914C31.1283 30.154 31.0392 30.0348 30.9208 29.9505C30.8024 29.8662 30.6606 29.8208 30.5153 29.8208C30.3699 29.8208 30.2281 29.8662 30.1097 29.9505C29.9913 30.0348 29.9022 30.154 29.8547 30.2914C29.7369 30.5895 29.5731 30.8672 29.3692 31.1145C29.0218 31.5302 28.5042 31.9097 27.723 31.9097C26.9431 31.9097 26.4255 31.5302 26.0795 31.1145C25.8773 30.8691 25.7144 30.5938 25.5968 30.2984C25.5678 30.2077 25.5205 30.124 25.4577 30.0524C25.3949 29.9808 25.3181 29.923 25.2319 29.8824C25.1458 29.8418 25.0523 29.8194 24.9571 29.8166C24.862 29.8137 24.7672 29.8305 24.6789 29.8659C24.5829 29.9031 24.4964 29.9612 24.4257 30.036C24.355 30.1108 24.3019 30.2005 24.2701 30.2984C24.1525 30.5938 23.9896 30.8691 23.7874 31.1145C23.4414 31.5302 22.9252 31.9097 22.144 31.9097C21.3627 31.9097 20.8465 31.5302 20.5005 31.1145C20.3517 30.9343 20.2239 30.7378 20.1197 30.5286C20.0942 30.477 20.0709 30.4244 20.0499 30.3709C20.022 30.3012 19.9941 30.2286 19.9564 30.1644C19.8711 30.0177 19.7352 29.9071 19.5742 29.8533L19.5672 29.8505C19.416 29.8011 19.2523 29.8051 19.1037 29.862C18.9551 29.9189 18.8306 30.0252 18.7511 30.163C18.7194 30.2203 18.6915 30.2794 18.6674 30.3402C18.6452 30.3959 18.62 30.4504 18.592 30.5034C18.4754 30.7102 18.3308 30.8998 18.1623 31.0671C17.7633 31.4689 17.0658 31.9097 15.866 31.9097C15.681 31.9097 15.5036 31.9832 15.3728 32.114C15.2419 32.2448 15.1685 32.4223 15.1685 32.6073C15.1685 32.7923 15.2419 32.9697 15.3728 33.1005C15.5036 33.2313 15.681 33.3048 15.866 33.3048C17.4578 33.3048 18.5041 32.6993 19.1501 32.0548C19.2101 31.9934 19.2673 31.9334 19.3203 31.8734C19.3552 31.9167 19.39 31.9627 19.4277 32.0074Z" fill="#307FE2"/>
</svg>
