<svg width="50" height="51" viewBox="0 0 50 51" fill="none" xmlns="http://www.w3.org/2000/svg">
<path d="M49.8684 25.671C49.8684 30.6025 48.406 35.4233 45.6662 39.5237C42.9264 43.6241 39.0322 46.82 34.4761 48.7072C29.92 50.5944 24.9065 51.0882 20.0698 50.1261C15.233 49.164 10.7902 46.7893 7.30307 43.3022C3.81596 39.815 1.4412 35.3722 0.479112 30.5354C-0.482979 25.6987 0.0108115 20.6852 1.89802 16.1291C3.78523 11.573 6.98111 7.67878 11.0815 4.93898C15.1819 2.19917 20.0027 0.736817 24.9342 0.736817C28.2088 0.736006 31.4516 1.38039 34.4771 2.63316C37.5026 3.88593 40.2516 5.72255 42.5672 8.03806C44.8827 10.3536 46.7193 13.1026 47.972 16.1281C49.2248 19.1537 49.8692 22.3964 49.8684 25.671" fill="#307FE2"/>
<circle cx="24.9342" cy="25.671" r="17.9969" fill="white"/>
<path d="M19.8315 28.7214C19.2696 28.9278 18.6715 29.0175 18.0738 28.9848C17.4761 28.9522 16.8913 28.7979 16.3553 28.5314C15.8192 28.265 15.3432 27.892 14.9563 27.4352C14.5694 26.9784 14.2798 26.4475 14.1052 25.8749C13.9306 25.3023 13.8746 24.7001 13.9408 24.1052C14.0069 23.5103 14.1937 22.9351 14.4899 22.4148C14.786 21.8946 15.1851 21.4402 15.6629 21.0796C16.1407 20.7189 16.687 20.4596 17.2685 20.3174V20.1744C17.2677 19.4321 17.4548 18.7018 17.8122 18.0513C18.1696 17.4008 18.6857 16.8513 19.3125 16.4539C19.9394 16.0565 20.6566 15.8241 21.3974 15.7784C22.1382 15.7327 22.8785 15.8751 23.5495 16.1924C24.0107 15.5837 24.6426 15.1259 25.3647 14.8773C26.0868 14.6287 26.8666 14.6005 27.6048 14.7962C28.343 14.992 29.0063 15.4029 29.5104 15.9766C30.0144 16.5504 30.3364 17.2611 30.4355 18.0184C30.9937 18.1256 31.5049 18.4032 31.8989 18.8129C32.2929 19.2226 32.5502 19.7444 32.6355 20.3064C33.2307 20.4572 33.7877 20.731 34.2708 21.11C34.7539 21.4891 35.1523 21.9651 35.4403 22.5073C35.7284 23.0496 35.8998 23.6462 35.9434 24.2587C35.9871 24.8712 35.902 25.486 35.6938 26.0636C35.4856 26.6413 35.1588 27.169 34.7343 27.6127C34.3099 28.0565 33.7973 28.4065 33.2295 28.6402C32.6617 28.874 32.0513 28.9863 31.4375 28.97C30.8236 28.9536 30.22 28.809 29.6655 28.5454C29.074 29.5058 28.2026 30.262 27.1685 30.7124V34.4744L29.3685 35.5744V36.6744H20.5685V35.5744L22.7685 34.4744V31.1744L19.8315 28.7214ZM19.4685 25.6744L22.7685 28.9744V25.6744H19.4685Z" fill="#307FE2"/>
</svg>
