<svg width="50" height="51" viewBox="0 0 50 51" fill="none" xmlns="http://www.w3.org/2000/svg">
<path d="M49.8684 25.8026C49.8684 30.7341 48.406 35.5549 45.6662 39.6553C42.9264 43.7557 39.0322 46.9516 34.4761 48.8388C29.92 50.726 24.9065 51.2198 20.0698 50.2577C15.233 49.2956 10.7902 46.9209 7.30307 43.4337C3.81596 39.9466 1.4412 35.5038 0.479112 30.667C-0.482979 25.8303 0.0108115 20.8168 1.89802 16.2607C3.78523 11.7046 6.98111 7.81038 11.0815 5.07057C15.1819 2.33077 20.0027 0.868409 24.9342 0.868409C28.2088 0.867598 31.4516 1.51198 34.4771 2.76475C37.5026 4.01753 40.2516 5.85414 42.5672 8.16966C44.8827 10.4852 46.7193 13.2342 47.972 16.2597C49.2248 19.2853 49.8692 22.528 49.8684 25.8026" fill="#307FE2"/>
<circle cx="24.9342" cy="25.8026" r="17.9969" fill="white"/>
<path d="M17.7246 23.0527H19.5195L19.7954 31.3027H17.4858L17.7246 23.0527ZM16.2259 31.761H33.6425V32.6777H35.0175V34.0527H35.9342V34.9693H13.9342V34.0527H14.8509V32.6777H16.2259V31.761ZM34.5592 20.6748L24.9351 16.636L15.3092 20.6748V21.2193H34.5592V20.6748ZM17.1425 21.6777H32.7259V22.5943H17.1425V21.6777ZM30.3132 23.0527H32.1071L32.3853 31.3027H30.0726L30.3132 23.0527ZM26.1185 23.0527H27.9125L28.1875 31.3027H25.877L26.1185 23.0527ZM21.923 23.0527H23.7173L23.9905 31.3027H21.681L21.923 23.0527Z" fill="#307FE2"/>
</svg>
