<svg width="50" height="51" viewBox="0 0 50 51" fill="none" xmlns="http://www.w3.org/2000/svg">
<path d="M49.8684 25.5394C49.8684 30.4709 48.406 35.2917 45.6662 39.3921C42.9264 43.4925 39.0322 46.6884 34.4761 48.5756C29.92 50.4628 24.9065 50.9566 20.0698 49.9945C15.233 49.0324 10.7902 46.6577 7.30307 43.1706C3.81596 39.6835 1.4412 35.2406 0.479112 30.4038C-0.48298 25.5671 0.0108114 20.5536 1.89802 15.9975C3.78523 11.4414 6.98111 7.54719 11.0815 4.80739C15.1819 2.06758 20.0027 0.605225 24.9342 0.605225C28.2088 0.604414 31.4516 1.2488 34.4771 2.50157C37.5026 3.75434 40.2516 5.59096 42.5672 7.90647C44.8827 10.222 46.7193 12.971 47.972 15.9966C49.2248 19.0221 49.8692 22.2648 49.8684 25.5394Z" fill="#307FE2"/>
<path d="M7.43421 25.5884C7.50325 32.4254 10.6178 37.4785 16.4404 40.9008C18.4379 42.0184 20.6496 42.702 22.9304 42.9067C26.0181 43.2872 29.1516 42.8461 32.0134 41.6282C35.0156 40.3459 37.5883 38.2342 39.4285 35.5418C41.2687 32.8493 42.2998 29.6882 42.4005 26.4306C42.5601 23.8472 42.1517 21.2602 41.2037 18.851C38.6491 13.0629 34.2995 9.42616 28.0319 8.32367C25.7443 7.90665 23.3964 7.94887 21.1253 8.44787C18.8543 8.94688 16.7057 9.89262 14.8051 11.2299C12.9045 12.5671 11.29 14.2691 10.056 16.2362C8.82208 18.2034 7.99335 20.3962 7.61831 22.6867C7.50326 23.6421 7.4418 24.6032 7.43421 25.5654M24.8253 32.456C23.3277 32.5453 21.8453 32.1152 20.629 31.2387C19.8135 30.6724 19.1184 29.9506 18.5839 29.1148C18.0493 28.2791 17.6858 27.3459 17.5144 26.3693C17.2788 25.1563 17.3498 23.9038 17.721 22.725C18.0923 21.5463 18.7521 20.4785 19.6408 19.6182C20.5295 18.7578 21.619 18.1321 22.8108 17.7977C24.0027 17.4632 25.2593 17.4305 26.467 17.7025C26.5144 17.7161 26.5575 17.7415 26.5924 17.7764C26.6273 17.8112 26.6528 17.8542 26.6664 17.9015C26.6699 17.9489 26.6635 17.9965 26.6476 18.0413C26.6318 18.0861 26.6069 18.1272 26.5744 18.1619C26.2828 18.4452 25.9683 18.6978 25.6768 18.9811C25.1227 19.5108 24.7451 20.1977 24.5951 20.9487C24.4154 21.7984 24.5058 22.6829 24.8537 23.4789C25.2016 24.2749 25.7897 24.9428 26.536 25.3893C27.2775 25.8431 28.144 26.0504 29.0111 25.9816C29.8781 25.9128 30.701 25.5715 31.3613 25.0065C31.5915 24.8151 31.8063 24.6007 32.0517 24.417C32.0813 24.3917 32.1172 24.375 32.1556 24.3686C32.1939 24.3621 32.2333 24.3661 32.2696 24.3803C32.3058 24.3944 32.3375 24.4182 32.3613 24.4489C32.3851 24.4796 32.4001 24.5162 32.4046 24.5548C32.4481 24.7508 32.4687 24.9512 32.466 25.152C32.4596 26.1393 32.2542 27.1153 31.8619 28.0217C31.4696 28.9282 30.8986 29.7465 30.1827 30.4281C29.4669 31.1096 28.621 31.6404 27.6953 31.9888C26.7696 32.3372 25.7831 32.4961 24.7946 32.456" fill="white"/>
</svg>
