<svg width="50" height="51" viewBox="0 0 50 51" fill="none" xmlns="http://www.w3.org/2000/svg">
<path d="M49.8684 25.1446C49.8684 30.0762 48.406 34.8969 45.6662 38.9973C42.9264 43.0978 39.0322 46.2936 34.4761 48.1808C29.92 50.0681 24.9065 50.5618 20.0698 49.5997C15.233 48.6376 10.7902 46.2629 7.30307 42.7758C3.81596 39.2887 1.4412 34.8458 0.479112 30.0091C-0.482979 25.1723 0.0108115 20.1589 1.89802 15.6027C3.78523 11.0466 6.98111 7.15242 11.0815 4.41261C15.1819 1.67281 20.0027 0.21045 24.9342 0.21045C28.2088 0.209639 31.4516 0.854021 34.4771 2.10679C37.5026 3.35957 40.2516 5.19618 42.5672 7.5117C44.8827 9.82721 46.7193 12.5763 47.972 15.6018C49.2248 18.6273 49.8692 21.87 49.8684 25.1446" fill="#307FE2"/>
<circle cx="24.9342" cy="25.1447" r="17.9969" fill="white"/>
<path d="M24.291 17.6845C24.715 17.3828 25.2803 17.3828 25.7042 17.6845C26.5636 18.2765 27.614 18.6814 28.6643 18.6814C29.6917 18.6814 30.7803 18.2689 31.6206 17.6845C32.0751 17.3598 32.6938 17.3866 33.1178 17.7494C33.6678 18.2039 34.3591 18.5515 35.0504 18.7119C35.7074 18.8647 36.116 19.5217 35.9633 20.1786C35.8105 20.8355 35.1535 21.2442 34.4966 21.0914C33.5608 20.8737 32.7817 20.4612 32.2737 20.1366C31.166 20.7324 29.9247 21.1258 28.6643 21.1258C27.4459 21.1258 26.3497 20.7477 25.5935 20.4039C25.3719 20.3008 25.1695 20.2015 24.9976 20.1098C24.8258 20.2015 24.6272 20.3046 24.4018 20.4039C23.6456 20.7477 22.5494 21.1258 21.331 21.1258C20.0706 21.1258 18.8292 20.7324 17.7216 20.1404C17.2098 20.4612 16.4344 20.8776 15.4987 21.0953C14.8417 21.248 14.1848 20.8394 14.032 20.1824C13.8792 19.5255 14.2879 18.8685 14.9449 18.7158C15.6324 18.5515 16.3275 18.2039 16.8737 17.7494C17.2976 17.3866 17.9164 17.3637 18.3709 17.6845C19.2188 18.2689 20.3035 18.6814 21.331 18.6814C22.3813 18.6814 23.4317 18.2765 24.291 17.6845ZM25.7042 28.6845C26.5636 29.2765 27.614 29.6814 28.6643 29.6814C29.6917 29.6814 30.7803 29.2689 31.6206 28.6845C32.0751 28.3598 32.6938 28.3866 33.1178 28.7494C33.6678 29.2039 34.3591 29.5515 35.0504 29.7119C35.7074 29.8647 36.116 30.5217 35.9633 31.1786C35.8105 31.8355 35.1535 32.2442 34.4966 32.0914C33.5608 31.8737 32.7817 31.4612 32.2737 31.1366C31.166 31.7324 29.9247 32.1258 28.6643 32.1258C27.4459 32.1258 26.3497 31.7477 25.5935 31.4039C25.3719 31.3008 25.1695 31.2015 24.9976 31.1098C24.8258 31.2015 24.6272 31.3046 24.4018 31.4039C23.6456 31.7477 22.5494 32.1258 21.331 32.1258C20.0706 32.1258 18.8292 31.7324 17.7216 31.1404C17.2098 31.4612 16.4344 31.8776 15.4987 32.0953C14.8417 32.248 14.1848 31.8394 14.032 31.1824C13.8792 30.5255 14.2879 29.8685 14.9449 29.7158C15.6362 29.5553 16.3275 29.2078 16.8775 28.7533C17.3015 28.3942 17.9202 28.3675 18.3747 28.6883C19.2188 29.2689 20.3035 29.6814 21.331 29.6814C22.3813 29.6814 23.4317 29.2765 24.291 28.6845C24.715 28.3828 25.2803 28.3828 25.7042 28.6845ZM25.7042 23.1845C26.5636 23.7765 27.614 24.1814 28.6643 24.1814C29.6917 24.1814 30.7803 23.7689 31.6206 23.1845C32.0751 22.8598 32.6938 22.8866 33.1178 23.2494C33.6678 23.7039 34.3591 24.0515 35.0504 24.2119C35.7074 24.3647 36.116 25.0217 35.9633 25.6786C35.8105 26.3355 35.1535 26.7442 34.4966 26.5914C33.5608 26.3737 32.7817 25.9612 32.2737 25.6366C31.166 26.2324 29.9247 26.6258 28.6643 26.6258C27.4459 26.6258 26.3497 26.2477 25.5935 25.9039C25.3719 25.8008 25.1695 25.7015 24.9976 25.6098C24.8258 25.7015 24.6272 25.8046 24.4018 25.9039C23.6456 26.2477 22.5494 26.6258 21.331 26.6258C20.0706 26.6258 18.8292 26.2324 17.7216 25.6404C17.2098 25.9612 16.4344 26.3776 15.4987 26.5953C14.8417 26.748 14.1848 26.3394 14.032 25.6824C13.8792 25.0255 14.2879 24.3685 14.9449 24.2157C15.6362 24.0553 16.3275 23.7078 16.8775 23.2533C17.3015 22.8904 17.9202 22.8675 18.3747 23.1883C19.2188 23.7689 20.3035 24.1814 21.331 24.1814C22.3813 24.1814 23.4317 23.7765 24.291 23.1845C24.715 22.8828 25.2803 22.8828 25.7042 23.1845Z" fill="#307FE2"/>
</svg>
