<svg width="50" height="50" viewBox="0 0 50 50" fill="none" xmlns="http://www.w3.org/2000/svg">
<path d="M39.3667 0H10.6333C4.7607 0 0 4.7607 0 10.6333V39.3667C0 45.2393 4.7607 50 10.6333 50H39.3667C45.2393 50 50 45.2393 50 39.3667V10.6333C50 4.7607 45.2393 0 39.3667 0Z" fill="#307FE2"/>
<path d="M19.6923 13.7461C13.476 13.7461 8.43823 18.7839 8.43823 25.0001C8.43823 31.2164 13.476 36.2542 19.6923 36.2542C25.9085 36.2542 30.9463 31.2164 30.9463 25.0001C30.9463 18.7839 25.9085 13.7461 19.6923 13.7461ZM22.697 28.0228C21.8693 28.8415 20.8708 29.2463 19.6833 29.2463C18.4958 29.2463 17.4883 28.8415 16.6696 28.0228C15.86 27.1952 15.4461 26.1876 15.4461 25.0001C15.4461 23.8127 15.851 22.8051 16.6696 21.9955C17.4972 21.1678 18.4958 20.754 19.6833 20.754C20.8708 20.754 21.8783 21.1678 22.697 21.9955C23.5246 22.8141 23.9294 23.8127 23.9294 25.0001C23.9294 26.1876 23.5156 27.1952 22.697 28.0228Z" fill="white"/>
<path d="M40.3292 34.6169C39.5016 35.4355 38.503 35.8404 37.3155 35.8404C36.128 35.8404 35.1205 35.4355 34.3019 34.6169C33.4922 33.7893 33.0784 32.7817 33.0784 31.5942C33.0784 30.4068 33.4832 29.3992 34.3019 28.5896C35.1295 27.7619 36.128 27.3481 37.3155 27.3481C38.503 27.3481 39.5106 27.7619 40.3292 28.5896C41.1568 29.4082 41.5617 30.4068 41.5617 31.5942C41.5617 32.7817 41.1478 33.7893 40.3292 34.6169Z" fill="white"/>
<path d="M41.1928 15.2844H33.4382V25.324H41.1928V15.2844Z" fill="white"/>
</svg>
