<svg width="44" height="44" viewBox="0 0 44 44" fill="none" xmlns="http://www.w3.org/2000/svg">
<path d="M43.2431 21.6215C43.2431 25.8979 41.975 30.0782 39.5992 33.6338C37.2234 37.1895 33.8465 39.9607 29.8957 41.5972C25.9449 43.2337 21.5976 43.6619 17.4034 42.8276C13.2092 41.9933 9.35663 39.9341 6.33281 36.9103C3.30898 33.8864 1.24973 30.0338 0.415459 25.8397C-0.418813 21.6455 0.00937511 17.2981 1.64586 13.3473C3.28234 9.39651 6.05363 6.01968 9.60927 3.64388C13.1649 1.26807 17.3452 6.63741e-07 21.6215 6.63741e-07C24.4611 -0.000702986 27.273 0.558069 29.8966 1.6444C32.5201 2.73074 34.904 4.32335 36.9118 6.33123C38.9197 8.33912 40.5123 10.7229 41.5987 13.3465C42.685 15.9701 43.2438 18.782 43.2431 21.6215" fill="white"/>
<path d="M17.7076 13.2158C13.1236 13.2158 9.40869 16.9788 9.40869 21.6221C9.40869 26.2653 13.1236 30.0283 17.7076 30.0283C22.2916 30.0283 26.0065 26.2653 26.0065 21.6221C26.0065 16.9788 22.2916 13.2158 17.7076 13.2158ZM19.9233 23.8799C19.313 24.4913 18.5766 24.7937 17.701 24.7937C16.8253 24.7937 16.0823 24.4913 15.4786 23.8799C14.8816 23.2617 14.5764 22.5091 14.5764 21.6221C14.5764 20.7351 14.875 19.9825 15.4786 19.3777C16.0889 18.7595 16.8253 18.4504 17.701 18.4504C18.5766 18.4504 19.3196 18.7595 19.9233 19.3777C20.5336 19.9892 20.8321 20.7351 20.8321 21.6221C20.8321 22.5091 20.527 23.2617 19.9233 23.8799Z" fill="#307FE2"/>
<path d="M32.9256 28.8053C32.3153 29.4168 31.5789 29.7192 30.7032 29.7192C29.8276 29.7192 29.0846 29.4168 28.4809 28.8053C27.8839 28.1871 27.5787 27.4345 27.5787 26.5476C27.5787 25.6606 27.8772 24.908 28.4809 24.3032C29.0912 23.685 29.8276 23.3759 30.7032 23.3759C31.5789 23.3759 32.3219 23.685 32.9256 24.3032C33.5359 24.9147 33.8344 25.6606 33.8344 26.5476C33.8344 27.4345 33.5292 28.1871 32.9256 28.8053Z" fill="#307FE2"/>
<path d="M33.5624 14.3649H27.8441V21.864H33.5624V14.3649Z" fill="#307FE2"/>
</svg>
