<svg width="52" height="52" viewBox="0 0 52 52" fill="none" xmlns="http://www.w3.org/2000/svg">
<path d="M52 25.7143C52 30.8001 50.4918 35.7717 47.6663 40.0004C44.8408 44.2291 40.8248 47.5249 36.1261 49.4712C31.4274 51.4174 26.2572 51.9267 21.2691 50.9345C16.281 49.9423 11.6992 47.4932 8.10296 43.897C4.50675 40.3008 2.0577 35.719 1.06551 30.7309C0.0733214 25.7428 0.582561 20.5725 2.52881 15.8739C4.47507 11.1752 7.77093 7.15915 11.9996 4.33363C16.2283 1.50811 21.1999 7.8938e-07 26.2857 7.8938e-07C29.6628 -0.000836054 33.007 0.663706 36.1271 1.95567C39.2473 3.24764 42.0823 5.14171 44.4703 7.52967C46.8583 9.91763 48.7523 12.7527 50.0443 15.8729C51.3363 18.993 52.0008 22.3372 52 25.7143" fill="url(#paint0_linear_312_795)"/>
<circle cx="26.2857" cy="25.7143" r="18.56" fill="white"/>
<path fill-rule="evenodd" clip-rule="evenodd" d="M26.5714 15.1426C20.4964 15.1426 15.5714 20.0676 15.5714 26.1426C15.5714 32.2176 20.4964 37.1426 26.5714 37.1426C32.6464 37.1426 37.5714 32.2176 37.5714 26.1426C37.5714 20.0676 32.6464 15.1426 26.5714 15.1426ZM26.0714 20.1426C25.8062 20.1426 25.5518 20.2479 25.3643 20.4355C25.1768 20.623 25.0714 20.8774 25.0714 21.1426C25.0714 21.4078 25.1768 21.6621 25.3643 21.8497C25.5518 22.0372 25.8062 22.1426 26.0714 22.1426H26.5714C26.8366 22.1426 27.091 22.0372 27.2785 21.8497C27.4661 21.6621 27.5714 21.4078 27.5714 21.1426C27.5714 20.8774 27.4661 20.623 27.2785 20.4355C27.091 20.2479 26.8366 20.1426 26.5714 20.1426H26.0714ZM24.5714 24.1426C24.3062 24.1426 24.0518 24.2479 23.8643 24.4355C23.6768 24.623 23.5714 24.8774 23.5714 25.1426C23.5714 25.4078 23.6768 25.6621 23.8643 25.8497C24.0518 26.0372 24.3062 26.1426 24.5714 26.1426H25.5714V29.1426H24.5714C24.3062 29.1426 24.0518 29.2479 23.8643 29.4355C23.6768 29.623 23.5714 29.8774 23.5714 30.1426C23.5714 30.4078 23.6768 30.6621 23.8643 30.8497C24.0518 31.0372 24.3062 31.1426 24.5714 31.1426H28.5714C28.8366 31.1426 29.091 31.0372 29.2785 30.8497C29.4661 30.6621 29.5714 30.4078 29.5714 30.1426C29.5714 29.8774 29.4661 29.623 29.2785 29.4355C29.091 29.2479 28.8366 29.1426 28.5714 29.1426H27.5714V25.1426C27.5714 24.8774 27.4661 24.623 27.2785 24.4355C27.091 24.2479 26.8366 24.1426 26.5714 24.1426H24.5714Z" fill="url(#paint1_linear_312_795)"/>
<defs>
<linearGradient id="paint0_linear_312_795" x1="0.571411" y1="-1.04484" x2="60.2704" y2="39.1428" gradientUnits="userSpaceOnUse">
<stop stop-color="#307FE2"/>
<stop offset="1" stop-color="#0857BA"/>
</linearGradient>
<linearGradient id="paint1_linear_312_795" x1="15.5714" y1="14.6956" x2="41.1093" y2="31.887" gradientUnits="userSpaceOnUse">
<stop stop-color="#307FE2"/>
<stop offset="1" stop-color="#0857BA"/>
</linearGradient>
</defs>
</svg>
