<svg width="52" height="52" viewBox="0 0 52 52" fill="none" xmlns="http://www.w3.org/2000/svg">
<path d="M51.4286 25.7143C51.4286 30.8001 49.9204 35.7717 47.0949 40.0004C44.2694 44.2291 40.2534 47.5249 35.5547 49.4712C30.856 51.4174 25.6858 51.9267 20.6977 50.9345C15.7096 49.9423 11.1278 47.4932 7.53155 43.897C3.93534 40.3008 1.48629 35.719 0.494101 30.7309C-0.49809 25.7428 0.0111497 20.5725 1.9574 15.8739C3.90366 11.1752 7.19952 7.15915 11.4282 4.33363C15.6569 1.50811 20.6285 7.8938e-07 25.7143 7.8938e-07C29.0914 -0.000836054 32.4355 0.663706 35.5557 1.95567C38.6759 3.24764 41.5109 5.14171 43.8989 7.52967C46.2869 9.91763 48.1809 12.7527 49.4729 15.8729C50.7649 18.993 51.4294 22.3372 51.4286 25.7143" fill="url(#paint0_linear_312_784)"/>
<circle cx="25.7143" cy="25.7143" r="18.56" fill="white"/>
<path d="M15.5183 18.981C15.5183 18.0498 15.8882 17.1567 16.5467 16.4982C17.2052 15.8397 18.0983 15.4697 19.0296 15.4697H33.615C34.0761 15.4697 34.5327 15.5605 34.9587 15.737C35.3847 15.9135 35.7718 16.1721 36.0978 16.4982C36.4239 16.8242 36.6825 17.2113 36.859 17.6373C37.0355 18.0633 37.1263 18.5199 37.1263 18.981V29.2448C37.1263 29.7059 37.0355 30.1625 36.859 30.5885C36.6825 31.0145 36.4239 31.4016 36.0978 31.7277C35.7718 32.0537 35.3847 32.3124 34.9587 32.4888C34.5327 32.6653 34.0761 32.7561 33.615 32.7561H26.8355L24.6207 30.5413C25.2276 29.3225 25.3976 27.9322 25.1022 26.6031C24.8067 25.274 24.0638 24.0866 22.9977 23.2397C21.9316 22.3928 20.607 21.9376 19.2455 21.9505C17.884 21.9633 16.5682 22.4433 15.5183 23.3102V18.981ZM19.2997 32.7561C20.3093 32.7576 21.2942 32.4433 22.1163 31.8572L24.9394 34.6792C25.0136 34.7588 25.103 34.8227 25.2024 34.867C25.3018 34.9113 25.4091 34.9351 25.5179 34.937C25.6267 34.9389 25.7348 34.9189 25.8357 34.8781C25.9366 34.8374 26.0282 34.7767 26.1052 34.6998C26.1821 34.6228 26.2428 34.5312 26.2835 34.4303C26.3243 34.3294 26.3443 34.2213 26.3424 34.1125C26.3404 34.0037 26.3166 33.8964 26.2723 33.797C26.2281 33.6976 26.1642 33.6082 26.0846 33.534L23.2626 30.7109C23.894 29.8226 24.2086 28.7478 24.1559 27.6592C24.1032 26.5706 23.6862 25.5313 22.972 24.7081C22.2577 23.8849 21.2876 23.3256 20.2173 23.1199C19.147 22.9142 18.0386 23.0741 17.0701 23.5739C16.1016 24.0738 15.3291 24.8845 14.8767 25.8761C14.4243 26.8676 14.3181 27.9824 14.5753 29.0415C14.8324 30.1006 15.438 31.0426 16.2948 31.7162C17.1515 32.3899 18.2098 32.7561 19.2997 32.7561ZM19.2997 31.1355C18.4401 31.1355 17.6157 30.794 17.0078 30.1862C16.4 29.5783 16.0585 28.7539 16.0585 27.8943C16.0585 27.0347 16.4 26.2103 17.0078 25.6024C17.6157 24.9946 18.4401 24.6531 19.2997 24.6531C20.1593 24.6531 20.9837 24.9946 21.5916 25.6024C22.1994 26.2103 22.5409 27.0347 22.5409 27.8943C22.5409 28.7539 22.1994 29.5783 21.5916 30.1862C20.9837 30.794 20.1593 31.1355 19.2997 31.1355Z" fill="url(#paint1_linear_312_784)"/>
<defs>
<linearGradient id="paint0_linear_312_784" x1="-2.1978e-07" y1="-1.04484" x2="59.699" y2="39.1428" gradientUnits="userSpaceOnUse">
<stop stop-color="#307FE2"/>
<stop offset="1" stop-color="#0857BA"/>
</linearGradient>
<linearGradient id="paint1_linear_312_784" x1="14.438" y1="15.0742" x2="38.1281" y2="33.6602" gradientUnits="userSpaceOnUse">
<stop stop-color="#307FE2"/>
<stop offset="1" stop-color="#0857BA"/>
</linearGradient>
</defs>
</svg>
