<svg width="52" height="52" viewBox="0 0 52 52" fill="none" xmlns="http://www.w3.org/2000/svg">
<path d="M52 25.7143C52 30.8001 50.4918 35.7717 47.6663 40.0004C44.8408 44.2291 40.8248 47.5249 36.1261 49.4712C31.4274 51.4174 26.2572 51.9267 21.2691 50.9345C16.281 49.9423 11.6992 47.4932 8.10296 43.897C4.50675 40.3008 2.0577 35.719 1.06551 30.7309C0.0733214 25.7428 0.582561 20.5725 2.52881 15.8739C4.47507 11.1752 7.77093 7.15915 11.9996 4.33363C16.2283 1.50811 21.1999 7.8938e-07 26.2857 7.8938e-07C29.6628 -0.000836054 33.007 0.663706 36.1271 1.95567C39.2473 3.24764 42.0823 5.14171 44.4703 7.52967C46.8583 9.91763 48.7523 12.7527 50.0443 15.8729C51.3363 18.993 52.0008 22.3372 52 25.7143" fill="url(#paint0_linear_312_789)"/>
<circle cx="26.2857" cy="25.7143" r="18.56" fill="white"/>
<path d="M28.3967 26.5163V26.468L28.1066 22.5999C28.0985 22.4951 28.0542 22.4044 27.9736 22.3279C27.893 22.2513 27.8003 22.213 27.6956 22.213H25.4472C25.3425 22.213 25.2498 22.2513 25.1692 22.3279C25.0886 22.4044 25.0443 22.4951 25.0362 22.5999L24.7461 26.468V26.5163C24.7381 26.613 24.7703 26.6936 24.8428 26.7581C24.9154 26.8226 25 26.8548 25.0967 26.8548H28.0461C28.1428 26.8548 28.2275 26.8226 28.3 26.7581C28.3725 26.6936 28.4047 26.613 28.3967 26.5163ZM37.5714 32.1614C37.5714 32.7497 37.3861 33.0438 37.0154 33.0438H28.5055C28.6102 33.0438 28.6989 33.0055 28.7714 32.929C28.8439 32.8524 28.8762 32.7618 28.8681 32.657L28.6264 29.5625C28.6183 29.4577 28.574 29.3671 28.4934 29.2905C28.4128 29.214 28.3201 29.1757 28.2154 29.1757H24.9275C24.8227 29.1757 24.73 29.214 24.6494 29.2905C24.5688 29.3671 24.5245 29.4577 24.5165 29.5625L24.2747 32.657C24.2666 32.7618 24.2989 32.8524 24.3714 32.929C24.4439 33.0055 24.5326 33.0438 24.6373 33.0438H16.1275C15.7568 33.0438 15.5714 32.7497 15.5714 32.1614C15.5714 31.7262 15.6762 31.2588 15.8857 30.7592L20.9264 18.1394C20.9908 17.9863 21.0956 17.8533 21.2406 17.7405C21.3857 17.6277 21.5388 17.5713 21.7 17.5713H25.7978C25.693 17.5713 25.6003 17.6096 25.5198 17.6861C25.4392 17.7627 25.3949 17.8533 25.3868 17.9581L25.2055 20.279C25.1974 20.3918 25.2297 20.4845 25.3022 20.557C25.3747 20.6295 25.4634 20.6658 25.5681 20.6658H27.5747C27.6795 20.6658 27.7681 20.6295 27.8406 20.557C27.9132 20.4845 27.9454 20.3918 27.9373 20.279L27.756 17.9581C27.748 17.8533 27.7036 17.7627 27.6231 17.6861C27.5425 17.6096 27.4498 17.5713 27.345 17.5713H31.4428C31.604 17.5713 31.7571 17.6277 31.9022 17.7405C32.0472 17.8533 32.152 17.9863 32.2165 18.1394L37.2571 30.7592C37.4666 31.2588 37.5714 31.7262 37.5714 32.1614Z" fill="url(#paint1_linear_312_789)"/>
<defs>
<linearGradient id="paint0_linear_312_789" x1="0.571411" y1="-1.04484" x2="60.2704" y2="39.1428" gradientUnits="userSpaceOnUse">
<stop stop-color="#307FE2"/>
<stop offset="1" stop-color="#0857BA"/>
</linearGradient>
<linearGradient id="paint1_linear_312_789" x1="15.5714" y1="17.2569" x2="34.9385" y2="35.7945" gradientUnits="userSpaceOnUse">
<stop stop-color="#307FE2"/>
<stop offset="1" stop-color="#0857BA"/>
</linearGradient>
</defs>
</svg>
