<svg width="52" height="52" viewBox="0 0 52 52" fill="none" xmlns="http://www.w3.org/2000/svg">
<path d="M52 25.7143C52 30.8001 50.4918 35.7717 47.6663 40.0004C44.8408 44.2291 40.8248 47.5249 36.1261 49.4712C31.4274 51.4174 26.2572 51.9267 21.2691 50.9345C16.281 49.9423 11.6992 47.4932 8.10296 43.897C4.50675 40.3008 2.0577 35.719 1.06551 30.7309C0.0733214 25.7428 0.582561 20.5725 2.52881 15.8739C4.47507 11.1752 7.77093 7.15915 11.9996 4.33363C16.2283 1.50811 21.1999 7.8938e-07 26.2857 7.8938e-07C29.6628 -0.000836054 33.007 0.663706 36.1271 1.95567C39.2473 3.24764 42.0823 5.14171 44.4703 7.52967C46.8583 9.91763 48.7523 12.7527 50.0443 15.8729C51.3363 18.993 52.0008 22.3372 52 25.7143" fill="url(#paint0_linear_312_801)"/>
<circle cx="26.2857" cy="25.7143" r="18.56" fill="white"/>
<path d="M25.6476 14.959C26.2448 14.7441 26.898 14.7441 27.4995 14.959L35.7495 17.9066C36.8409 18.2977 37.5714 19.3332 37.5714 20.4977V30.9305C37.5714 32.0906 36.8409 33.1305 35.7452 33.5215L27.4952 36.4691C26.898 36.684 26.2448 36.684 25.6433 36.4691L17.3933 33.5215C16.3019 33.1305 15.5714 32.0949 15.5714 30.9305V20.4977C15.5714 19.3375 16.3019 18.2977 17.3976 17.9066L25.6476 14.959ZM26.5714 17.55L19.1077 20.2141L26.5714 22.8781L34.0351 20.2141L26.5714 17.55ZM27.9464 33.3883L34.8214 30.9348V22.8566L27.9464 25.3102V33.3883Z" fill="url(#paint1_linear_312_801)"/>
<defs>
<linearGradient id="paint0_linear_312_801" x1="0.571411" y1="-1.04484" x2="60.2704" y2="39.1428" gradientUnits="userSpaceOnUse">
<stop stop-color="#307FE2"/>
<stop offset="1" stop-color="#0857BA"/>
</linearGradient>
<linearGradient id="paint1_linear_312_801" x1="15.5714" y1="14.3543" x2="40.9872" y2="31.5948" gradientUnits="userSpaceOnUse">
<stop stop-color="#307FE2"/>
<stop offset="1" stop-color="#0857BA"/>
</linearGradient>
</defs>
</svg>
