<svg width="59" height="41" viewBox="0 0 59 41" fill="none" xmlns="http://www.w3.org/2000/svg">
<path d="M49.1758 12.3698C50.9706 10.0534 51.4492 8.05291 50.6714 7.31587C50.4321 7.10529 50.0134 7 49.5348 7C48.3981 7 46.7828 7.52645 44.9283 8.63201C45.706 9.15846 46.4239 9.73757 47.2016 10.3693C47.9195 11.0011 48.5776 11.6854 49.1758 12.3698Z" fill="white"/>
<path d="M41.1593 10.3693C41.8772 9.73757 42.6549 9.10582 43.4327 8.63201C41.6379 7.52645 39.9628 7 38.8262 7C38.3476 7 37.9288 7.10529 37.6895 7.31587C36.852 8.05291 37.3904 10.0534 39.1851 12.3698C39.7834 11.6854 40.4414 11.0011 41.1593 10.3693Z" fill="white"/>
<path d="M48.6372 13.0011C48.0389 12.3168 47.3809 11.5797 46.5433 10.8953C45.7656 10.2109 44.9281 9.57919 44.1504 9.05273C43.3726 9.57919 42.5351 10.1583 41.7574 10.8953C40.9797 11.5797 40.2618 12.3168 39.6635 13.0011C40.2618 13.6855 40.9198 14.4226 41.7574 15.107C42.5351 15.7914 43.3726 16.4231 44.1504 16.9496C44.9281 16.4231 45.7656 15.844 46.5433 15.107C47.3809 14.4226 48.0988 13.6855 48.6372 13.0011Z" fill="white"/>
<path d="M39.1851 13.6855C37.3904 16.0019 36.9118 18.0025 37.6895 18.7395C38.5271 19.4766 40.8004 19.0027 43.4327 17.4234C42.655 16.8969 41.9371 16.3178 41.1594 15.6861C40.4415 15.0017 39.7834 14.3173 39.1851 13.6855Z" fill="white"/>
<path d="M30.8096 0.0507812H7.35842C3.29035 0.0507812 0 2.94628 0 6.52617V19.477C0 23.0569 3.29035 25.9524 7.35842 25.9524H29.4337H51.5089C55.577 25.9524 58.8673 23.0569 58.8673 19.477V0.0507812H30.8096ZM29.4337 25.2153H7.35842C3.76894 25.2153 0.837543 22.6357 0.837543 19.477V6.52617C0.837543 3.36745 3.76894 0.787818 7.35842 0.787818H29.4337V25.2153ZM51.2696 19.2664C50.8508 19.6349 50.2526 19.8455 49.5347 19.8455C48.0989 19.8455 46.1845 19.1611 44.2103 17.9502C42.2361 19.1611 40.3217 19.8455 38.8859 19.8455C38.168 19.8455 37.5698 19.6875 37.151 19.2664C35.8947 18.1608 36.6126 15.6865 38.7065 13.0016C36.6126 10.3693 35.8947 7.89496 37.151 6.73676C38.4073 5.6312 41.2191 6.26295 44.2701 8.10554C47.2614 6.26295 50.0731 5.6312 51.3893 6.73676C52.6456 7.84231 51.9277 10.3166 49.8338 13.0016C51.8679 15.6865 52.5259 18.1608 51.2696 19.2664Z" fill="white"/>
<path d="M47.2016 15.6343C46.4837 16.2661 45.706 16.8978 44.9283 17.3716C47.5606 18.951 49.8339 19.3721 50.6714 18.6878C51.509 17.9507 50.9706 15.9502 49.1758 13.6338C48.5776 14.3182 47.9195 15.0026 47.2016 15.6343Z" fill="white"/>
<path d="M6.222 7.94762C5.44428 8.78994 5.08534 10.0008 5.32464 10.9484C5.9827 13.4227 8.61498 13.8439 10.5294 14.0545C12.0848 14.2124 13.5206 14.4757 13.4608 15.6865C13.4009 16.95 11.8455 17.2132 10.7687 17.2132C8.07656 17.2132 7.95691 15.4233 7.95691 15.4233H5.02551C5.08534 16.1077 5.32464 17.1606 6.222 18.0555C7.23902 19.0558 8.79446 19.5823 10.7687 19.5823C12.3241 19.5823 13.7001 19.1611 14.7171 18.3714V19.4243H17.469V16.3709L18.4262 15.4233L21.1781 19.4243H24.3488L20.3406 13.6333L24.3488 9.73756H20.8192L17.469 13.0016V6.52619H14.7171V8.10555C14.6573 8.00026 14.5376 7.89497 14.418 7.78968C13.4009 6.84206 11.9652 6.4209 10.1704 6.4209C8.07656 6.4209 6.88007 7.26323 6.222 7.94762ZM10.2302 8.63201C11.4267 8.63201 12.6831 8.89524 13.1616 10.3693H14.7171V12.6857C12.7429 11.2643 8.49533 12.1593 8.07656 10.3693C7.83726 9.47434 8.85428 8.63201 10.2302 8.63201Z" fill="white"/>
<path d="M2.11057 38.174C2.2685 38.2266 2.47909 38.2793 2.68967 38.2793C2.9529 38.2793 3.16348 38.174 3.32142 38.0161C3.47935 37.8581 3.58464 37.6475 3.63729 37.3843L0.215332 30.1719H2.47909L4.6902 35.3838L6.63808 30.1719H8.79655L5.74311 37.279C5.32194 38.2266 4.90078 38.911 4.47961 39.3848C4.00581 39.8586 3.532 40.0692 2.9529 40.0692C2.74231 40.0692 2.63703 40.0692 2.47909 40.0166C2.32115 40.0166 2.21586 39.9639 2.16321 39.9639L1.89999 39.8586C1.84734 39.806 1.74205 39.806 1.68941 39.806V37.9634C1.7947 38.0687 1.95263 38.1213 2.11057 38.174Z" fill="white"/>
<path d="M12.4818 37.1194C12.3238 37.172 12.2185 37.172 12.0606 37.2247C11.9027 37.2773 11.7447 37.2773 11.5342 37.2773C11.3762 37.33 11.1656 37.33 11.0077 37.33C10.5865 37.33 10.218 37.2773 9.90214 37.2247C9.58627 37.1194 9.32304 37.0141 9.11246 36.8562C8.90188 36.6982 8.74394 36.4877 8.63865 36.2244C8.53336 35.9612 8.48071 35.6453 8.48071 35.2768V32.6972H10.3233V34.9083C10.3233 35.1189 10.376 35.2768 10.4286 35.3821C10.4812 35.54 10.5339 35.6453 10.6392 35.698C10.7445 35.8033 10.8498 35.8559 11.0077 35.8559C11.1656 35.9086 11.3762 35.9086 11.5868 35.9086C11.9027 35.9086 12.1659 35.8559 12.3238 35.8033C12.5344 35.7506 12.6397 35.6453 12.745 35.5927V32.6445H14.5876V39.8043H12.745V36.9615C12.745 37.0141 12.6397 37.0668 12.4818 37.1194Z" fill="white"/>
<path d="M21.853 38.9637C21.853 39.1216 21.9056 39.2269 21.9582 39.2795C22.0109 39.3848 22.0635 39.4375 22.1162 39.4901C22.1688 39.5428 22.2215 39.5428 22.2741 39.5954V39.9113H20.2209L20.1156 39.5954C20.063 39.4375 20.063 39.2795 20.063 39.1216L19.6418 39.5428C19.4839 39.6481 19.326 39.7534 19.168 39.8586C19.0101 39.9639 18.7995 40.0166 18.5889 40.0692C18.3783 40.1219 18.1151 40.1745 17.7992 40.1745C17.4834 40.1745 17.1675 40.1219 16.9043 40.0166C16.641 39.9113 16.4305 39.7534 16.2199 39.5954C16.0093 39.3848 15.8514 39.1743 15.7461 38.911C15.6408 38.6478 15.5881 38.3319 15.5881 37.9634C15.5881 37.6475 15.6408 37.3843 15.7461 37.1211C15.8514 36.8579 15.9567 36.6473 16.1146 36.4367C16.2725 36.2261 16.4831 36.0682 16.7463 35.9629C17.0096 35.8049 17.2728 35.7523 17.5887 35.6997L19.3786 35.4364C19.4313 35.4364 19.5365 35.4364 19.5892 35.3838C19.6945 35.3838 19.7471 35.3311 19.7998 35.2785C19.8524 35.2258 19.9051 35.1732 19.9577 35.1206C20.0104 35.0153 20.0104 34.9626 20.0104 34.8047C20.0104 34.6994 19.9577 34.5941 19.9577 34.4888C19.9051 34.3835 19.8524 34.2782 19.7471 34.2256C19.6418 34.1203 19.5365 34.0676 19.3786 34.0676C19.2207 34.015 19.0627 34.015 18.8522 34.015C18.5889 34.015 18.431 34.0676 18.2731 34.0676C18.1151 34.1203 18.0098 34.2256 17.9045 34.2782C17.7992 34.3835 17.7466 34.4888 17.694 34.5941L17.5887 34.9626H15.7461C15.7461 34.8573 15.7461 34.752 15.7987 34.5941C15.8514 34.4362 15.904 34.2782 15.9567 34.0676C16.0093 33.9097 16.1672 33.6991 16.2725 33.5412C16.4305 33.3306 16.5884 33.1727 16.799 33.0147C17.0096 32.8568 17.2728 32.7515 17.6413 32.6462C17.9572 32.5409 18.3257 32.4883 18.7995 32.4883C19.4313 32.4883 19.9577 32.5409 20.3789 32.6989C20.7474 32.8568 21.0633 33.0147 21.3265 33.2253C21.5371 33.4359 21.695 33.6465 21.7477 33.9097C21.8003 34.1729 21.853 34.4362 21.853 34.6994V38.4899C21.8003 38.6478 21.8003 38.8057 21.853 38.9637ZM19.5892 36.4893C19.4839 36.542 19.326 36.5946 19.1154 36.6473L18.6416 36.7526C18.431 36.8052 18.2204 36.8579 18.0625 36.9105C17.9045 36.9631 17.7466 37.0158 17.6413 37.1211C17.536 37.2264 17.4307 37.3317 17.3781 37.437C17.3254 37.5422 17.2728 37.7002 17.2728 37.9108C17.2728 38.0687 17.3254 38.174 17.3254 38.2793C17.3781 38.3846 17.4307 38.4899 17.536 38.5425C17.6413 38.5952 17.694 38.7004 17.7992 38.7004C17.9045 38.7531 18.0625 38.7531 18.1678 38.7531C18.2204 38.7531 18.3257 38.7531 18.431 38.7004C18.5363 38.7004 18.6416 38.6478 18.7995 38.5952C18.9048 38.5425 19.0627 38.4899 19.168 38.3846C19.2733 38.3319 19.3786 38.2266 19.4839 38.0687C19.5892 37.9634 19.6945 37.8055 19.7471 37.5949C19.7998 37.437 19.8524 37.2264 19.8524 36.9631V36.2261C19.8524 36.384 19.6945 36.4367 19.5892 36.4893Z" fill="white"/>
<path d="M27.0122 34.6983C26.9595 34.5404 26.8542 34.4351 26.8016 34.3298C26.6963 34.2245 26.591 34.1719 26.4331 34.1192C26.2751 34.0666 26.1172 34.0666 25.9066 34.0666C25.5908 34.0666 25.3802 34.1192 25.1696 34.2772C24.959 34.4351 24.8537 34.593 24.7484 34.8036C24.6431 35.0142 24.5905 35.2774 24.5378 35.5407C24.4852 35.8039 24.4852 36.0145 24.4852 36.2777C24.4852 36.4883 24.4852 36.7515 24.5378 37.0147C24.5905 37.278 24.6431 37.4885 24.7484 37.7518C24.8537 37.9623 24.959 38.1729 25.1696 38.2782C25.3802 38.4362 25.5908 38.4888 25.9593 38.4888C26.1699 38.4888 26.3804 38.4362 26.5384 38.3309C26.6963 38.2256 26.8016 38.1203 26.9069 38.015C27.0122 37.8571 27.1175 37.7518 27.1701 37.5938C27.2228 37.4359 27.2228 37.3306 27.2228 37.2253H29.1706C29.1706 37.3306 29.1706 37.4885 29.118 37.6991C29.0654 37.9097 29.0127 38.0676 28.9074 38.2782C28.8021 38.4888 28.6968 38.6994 28.5389 38.91C28.381 39.1205 28.1704 39.3311 27.9598 39.4891C27.6966 39.647 27.4333 39.8049 27.1175 39.9102C26.8016 40.0155 26.4331 40.0682 26.0119 40.0682C25.4855 40.0682 25.0117 39.9629 24.5905 39.8049C24.1693 39.647 23.8008 39.3838 23.5376 39.0679C23.2744 38.752 23.0638 38.3309 22.9058 37.8571C22.7479 37.3832 22.6953 36.8568 22.6953 36.225C22.6953 35.5933 22.8005 35.0668 22.9585 34.593C23.1164 34.1192 23.327 33.7507 23.6429 33.4348C23.9587 33.119 24.2746 32.8557 24.6958 32.6978C25.1169 32.5399 25.5908 32.4346 26.0646 32.4346C26.2751 32.4346 26.4857 32.4872 26.749 32.4872C26.9595 32.5399 27.2228 32.5925 27.4333 32.6452C27.6439 32.7504 27.8545 32.8557 28.1177 32.961C28.3283 33.119 28.4863 33.2769 28.6968 33.4875C28.8548 33.6981 29.0127 33.9086 29.118 34.2245C29.2233 34.4877 29.2759 34.8036 29.3286 35.1721H27.3807C27.1175 35.0142 27.1175 34.8563 27.0122 34.6983Z" fill="white"/>
<path d="M35.5933 32.6972V34.2239H33.4348V39.857H31.5922V34.1713H29.4338V32.6445H35.5933V32.6972Z" fill="white"/>
<path d="M40.7524 35.2779V32.6982H42.595V39.858H40.7524V36.8046H38.0148V39.858H36.1722V32.6982H38.0148V35.2779H40.7524Z" fill="white"/>
<path d="M45.7538 37.0668L48.3861 32.6445H50.3339V39.8043H48.4914V35.4874H48.3861L45.8591 39.8043H43.8059V32.6972H45.6485L45.7538 37.0668Z" fill="white"/>
<path d="M56.0725 32.6982H58.5468L55.5987 35.6464L58.6521 39.8054H56.2831L54.1773 36.8046L53.4402 37.5943V39.858H51.545V32.6982H53.3876V35.4358L56.0725 32.6982Z" fill="white"/>
</svg>
