<svg width="82" height="42" viewBox="0 0 82 42" fill="none" xmlns="http://www.w3.org/2000/svg">
<g clip-path="url(#clip0_287_663)">
<path d="M4.94905 8.07779C4.94905 8.41451 4.90053 8.65502 4.75497 8.89553C4.60941 9.13604 4.51236 9.28035 4.31828 9.47276C4.1242 9.61706 3.93012 9.71327 3.73603 9.85757C3.54195 9.90568 3.29935 10.0019 3.05675 10.0019V10.5791H1.98929V10.0019C1.64965 9.95377 1.35852 9.85757 1.11592 9.76136C0.873313 9.61706 0.679231 9.52086 0.533669 9.32845C0.388107 9.13604 0.29106 8.94363 0.194018 8.70312C0.145497 8.46261 0.0484619 8.174 0.0484619 7.88539V5.52838C0.0484619 5.19167 0.0969797 4.95115 0.242542 4.71064C0.291063 4.51823 0.485147 4.32583 0.630709 4.18152C0.824792 3.98911 1.01888 3.94101 1.26148 3.7967C1.50408 3.6524 1.69816 3.6524 1.94077 3.6524V3.26758H3.10526V3.6524C3.34787 3.6524 3.54195 3.7005 3.78456 3.7967C3.97864 3.84481 4.17272 3.98911 4.3668 4.18152C4.56089 4.32583 4.70645 4.56634 4.80349 4.75875C4.94905 4.99926 4.99757 5.28787 4.99757 5.57648V8.1259H4.94905V8.07779ZM1.98929 4.51824C1.74669 4.56634 1.5526 4.66254 1.35852 4.75875C1.21296 4.95116 1.16443 5.14357 1.16443 5.38408V8.174C1.16443 8.31831 1.16444 8.41451 1.21296 8.55881C1.26148 8.70312 1.35852 8.75122 1.40704 8.79932C1.45556 8.84742 1.60112 8.94363 1.64964 8.99173C1.7952 9.03984 1.84373 9.03983 1.98929 9.03983V4.51824ZM3.93012 5.43217C3.93012 5.19166 3.8816 4.99926 3.68752 4.80685C3.54195 4.66255 3.34787 4.61444 3.10526 4.56634V9.08794C3.15378 9.08794 3.29934 9.03983 3.34787 9.03983C3.49343 8.99173 3.54195 8.89553 3.59047 8.84743C3.63899 8.79932 3.73604 8.70312 3.78456 8.60692C3.83308 8.46261 3.83307 8.41451 3.83307 8.2702V5.48028H3.93012V5.43217Z" fill="white"/>
<path d="M10.6745 8.65502C10.6745 9.28035 10.529 9.80947 10.2378 10.0981C9.89819 10.4348 9.4615 10.6272 8.87925 10.6272C8.24848 10.6272 7.81179 10.4829 7.52067 10.1943C7.27806 9.85757 7.08398 9.42465 7.08398 8.84743V5.19166C7.08398 4.95115 7.1325 4.61444 7.22954 4.42203C7.27806 4.18152 7.42363 3.98911 7.56919 3.7967C7.71475 3.6043 7.90884 3.45999 8.15144 3.41189C8.39404 3.36378 8.68517 3.26758 8.97629 3.26758C9.31593 3.26758 9.60706 3.31568 9.80114 3.41189C9.99522 3.41189 10.1893 3.55619 10.3349 3.7486C10.4804 3.94101 10.5775 4.13342 10.6745 4.37393C10.723 4.61444 10.723 4.90305 10.723 5.19166V8.65502H10.6745ZM9.51002 5.04736C9.51002 4.85495 9.4615 4.66254 9.36446 4.47013C9.31594 4.27772 9.12185 4.22962 8.83073 4.22962C8.68516 4.22962 8.58812 4.22962 8.49108 4.27773C8.34552 4.42203 8.297 4.47013 8.297 4.61444C8.24848 4.66254 8.24848 4.80685 8.24848 4.95115V5.28787V8.94363C8.24848 9.13604 8.297 9.32845 8.39404 9.47276C8.44256 9.61706 8.63664 9.71327 8.92777 9.71327C9.17037 9.71327 9.31593 9.66516 9.4615 9.47276C9.60706 9.32845 9.60706 9.13604 9.60706 8.89553V5.09546H9.51002V5.04736Z" fill="white"/>
<path d="M15.284 10.531V7.35626H13.9254V10.531H12.8094V3.26758H13.9739V6.29801H15.3325V3.26758H16.497V10.531H15.284Z" fill="white"/>
<path d="M19.1657 10.5305V11.9255H18.1953V9.56845L18.632 9.52035C18.8261 9.32794 18.9716 9.08743 19.0202 8.84692C19.0687 8.60641 19.1657 8.22159 19.1657 7.78868L19.3113 3.36328H22.6107V9.61656H23.0474V12.0217H22.077V10.6267H19.1172V10.5305H19.1657ZM20.1847 7.69247C20.1847 8.12539 20.1361 8.46211 20.1361 8.75072C20.0876 9.08743 19.9906 9.32794 19.8935 9.52035H21.4947V4.32532H20.3302L20.1847 7.69247Z" fill="white"/>
<path d="M29.9373 3.1709C30.2769 3.1709 30.5195 3.219 30.7136 3.31521C30.9077 3.36331 31.1017 3.50761 31.2958 3.65192C31.4414 3.79623 31.5384 3.98864 31.6355 4.18105C31.684 4.37345 31.781 4.61396 31.781 4.85447L30.7136 5.09498C30.7136 4.85447 30.6651 4.56586 30.568 4.46965C30.4225 4.27725 30.3254 4.22914 30.0343 4.22914C29.8887 4.22914 29.7917 4.22915 29.6946 4.27725C29.6461 4.32535 29.5491 4.42155 29.5006 4.46965C29.452 4.51776 29.452 4.66206 29.452 4.71016V5.04689V8.70264V8.94315C29.452 8.99125 29.5006 9.13556 29.5006 9.18366C29.5491 9.23177 29.6461 9.32797 29.6946 9.37608C29.7432 9.42418 29.8887 9.42417 30.0343 9.42417C30.471 9.42417 30.6651 9.08746 30.6651 8.55833C30.8591 8.60644 31.0532 8.60644 31.2473 8.60644C31.4414 8.60644 31.6355 8.65454 31.8296 8.65454C31.8296 9.23177 31.6355 9.66468 31.3929 10.0014C31.0532 10.3381 30.7136 10.5305 30.1313 10.5305C29.5006 10.5305 29.0639 10.3862 28.7727 10.0976C28.4331 9.76089 28.3361 9.32797 28.3361 8.75075V5.14309C28.3361 4.90258 28.3361 4.61396 28.3846 4.37345C28.4331 4.13294 28.5787 3.94053 28.7242 3.74812C28.8698 3.55571 29.0639 3.41141 29.3065 3.31521C29.3065 3.2671 29.5976 3.1709 29.9373 3.1709Z" fill="white"/>
<path d="M37.1184 8.65502C37.1184 9.28035 36.9728 9.80947 36.6817 10.0981C36.342 10.4348 35.9053 10.6272 35.3231 10.6272C34.6923 10.6272 34.2556 10.4829 33.9645 10.1943C33.7219 9.85757 33.5278 9.42465 33.5278 8.84743V5.19166C33.5278 4.95115 33.5763 4.61444 33.6734 4.42203C33.7219 4.18152 33.8675 3.98911 34.013 3.7967C34.1586 3.6043 34.3527 3.45999 34.5953 3.41189C34.8379 3.36378 35.129 3.26758 35.4201 3.26758C35.7598 3.26758 36.0509 3.31568 36.245 3.41189C36.4876 3.45999 36.6332 3.6043 36.8272 3.7967C36.9728 3.98911 37.0698 4.18152 37.1669 4.42203V5.09546V8.65502H37.1184ZM35.9539 5.04736C35.9539 4.85495 35.9053 4.66254 35.8083 4.47013C35.7598 4.27772 35.5657 4.22962 35.2746 4.22962C35.129 4.22962 35.032 4.22962 34.9349 4.27773C34.8864 4.32583 34.7894 4.42203 34.7408 4.47013C34.6923 4.51823 34.6923 4.66255 34.5953 4.80685V5.14357V8.79932C34.5953 8.99173 34.6438 9.18414 34.7408 9.32845C34.8864 9.47275 34.9835 9.56896 35.2746 9.56896C35.5172 9.56896 35.6627 9.52086 35.8083 9.32845C35.9539 9.18414 35.9539 8.99173 35.9539 8.75122V5.04736Z" fill="white"/>
<path d="M39.7869 10.5305V11.9255H38.8165V9.56845L39.2532 9.52035C39.4473 9.32794 39.5929 9.08743 39.6414 8.84692C39.6899 8.60641 39.7869 8.22159 39.7869 7.78868L39.9325 3.36328H43.2319V9.61656H43.6686V12.0217H42.6982V10.6267H39.7869V10.5305ZM40.8059 7.69247C40.8059 8.12539 40.7574 8.46211 40.7574 8.75072C40.7088 9.08743 40.6118 9.32794 40.5148 9.52035H42.1159V4.32532H40.9514L40.8059 7.69247Z" fill="white"/>
<path d="M45.5609 10.531V3.26758H48.8118V4.32583H46.6769V6.29801H48.5692V7.35626H46.6769V9.47276H48.8118V10.531H45.5609Z" fill="white"/>
<path d="M53.3242 5.96103L51.7716 10.5307H50.7041V3.2673H51.7716V7.88511L53.3242 3.2673H54.3917V10.5307H53.2272L53.3242 5.96103ZM51.9171 1.63184C51.9171 1.67994 51.9171 1.77614 51.9656 1.87235C52.0142 1.92045 52.0142 2.01665 52.1112 2.11286C52.1597 2.16096 52.2568 2.25716 52.3053 2.30526C52.3538 2.35336 52.4994 2.35337 52.5479 2.35337C52.6934 2.35337 52.742 2.35336 52.7905 2.30526C52.839 2.25716 52.9361 2.16096 52.9846 2.11286C53.0331 2.06475 53.1301 1.96855 53.1301 1.87235C53.1301 1.82424 53.1787 1.72804 53.1787 1.63184H54.0035C54.0035 1.77614 53.955 1.96855 53.8579 2.16096C53.9065 2.30527 53.8094 2.49767 53.6639 2.59388C53.5183 2.73818 53.4213 2.83439 53.2272 2.9787C53.0331 3.0268 52.839 3.123 52.5964 3.123C52.3538 3.123 52.0627 3.0749 51.9171 2.9787C51.7716 2.88249 51.5775 2.78629 51.4804 2.59388C51.3349 2.44957 51.2864 2.25717 51.2378 2.16096C51.1893 1.96855 51.0923 1.77614 51.0923 1.63184H51.9171Z" fill="white"/>
<path d="M58.3703 3.1709C58.71 3.1709 58.9526 3.219 59.1467 3.31521C59.3408 3.36331 59.5348 3.50761 59.7289 3.65192C59.8745 3.79623 59.9715 3.98864 60.0686 4.18105C60.1171 4.37345 60.2141 4.61396 60.2141 4.85447L59.1467 5.09498C59.1467 4.85447 59.0982 4.56586 59.0011 4.46965C58.8556 4.27725 58.7585 4.22914 58.4674 4.22914C58.3218 4.22914 58.2248 4.22915 58.1277 4.27725C58.0792 4.32535 57.9822 4.42155 57.9337 4.46965C57.8851 4.51776 57.8851 4.66206 57.8851 4.71016V5.04689V8.70264V8.94315C57.8851 8.99125 57.9337 9.13556 57.9337 9.18366C57.9822 9.23177 58.0792 9.32797 58.1277 9.37608C58.1763 9.42418 58.3218 9.42417 58.4674 9.42417C58.9041 9.42417 59.0982 9.08746 59.0982 8.55833C59.2922 8.60644 59.4863 8.60644 59.6804 8.60644C59.8745 8.60644 60.0686 8.65454 60.2627 8.65454C60.2627 9.23177 60.0686 9.66468 59.826 10.0014C59.4863 10.3381 59.1467 10.5305 58.5644 10.5305C57.9337 10.5305 57.497 10.3862 57.2058 10.0976C56.8662 9.76089 56.7692 9.32797 56.7692 8.75075V5.14309C56.7692 4.90258 56.7692 4.61396 56.8177 4.37345C56.8662 4.13294 57.0118 3.94053 57.1573 3.74812C57.3029 3.55571 57.497 3.41141 57.7396 3.31521C57.7396 3.2671 58.0792 3.1709 58.3703 3.1709Z" fill="white"/>
<path d="M63.9018 4.32583V10.531H62.7373V4.32583H61.5243V3.26758H65.0178V4.32583H63.9018Z" fill="white"/>
<path d="M69.5301 6.73094C69.8698 6.87524 70.1124 7.06765 70.1609 7.30816C70.3065 7.64488 70.355 7.93348 70.355 8.3183C70.355 9.08793 70.1609 9.66516 69.8213 9.95378C69.4816 10.3386 68.9964 10.4829 68.2686 10.4829H66.7159V3.26758H68.3171C68.9479 3.26758 69.4816 3.45999 69.7242 3.7967C70.0639 4.13342 70.1609 4.61444 70.1609 5.23977C70.1609 5.57648 70.1124 5.8651 69.9668 6.10561C70.0154 6.34612 69.7727 6.53853 69.5301 6.73094ZM69.1905 5.28787C69.1905 4.95116 69.142 4.71064 68.9964 4.61444C68.8509 4.47013 68.6082 4.42203 68.3656 4.42203H67.9775V6.34612H68.3656C68.7053 6.34612 68.8994 6.29802 68.9964 6.10561C69.142 5.76889 69.1905 5.52838 69.1905 5.28787ZM69.239 8.2221C69.239 7.88538 69.1905 7.64488 69.0449 7.45247C68.8994 7.26006 68.7053 7.21196 68.4142 7.21196H67.9775V9.47275H68.4142C68.6083 9.47275 68.7538 9.42465 68.8509 9.32845C68.9964 9.28035 69.0449 9.18414 69.0935 9.08794C69.142 8.94363 69.239 8.84742 69.239 8.70312V8.2221Z" fill="white"/>
<path d="M75.1586 5.9613L73.6059 10.531H72.5385V3.26758H73.6059V7.88539H73.6544L75.2071 3.26758H76.2746V10.531H75.1586V5.9613Z" fill="white"/>
<path d="M78.2155 10.5305L78.6036 8.2697C78.6521 8.02919 78.7492 7.83678 78.8462 7.64437C78.9918 7.45196 79.0888 7.25955 79.2829 7.21145C78.9433 7.06715 78.7007 6.82663 78.6036 6.58612C78.4581 6.34561 78.4095 5.96079 78.4095 5.57598C78.4095 4.90255 78.6036 4.32532 78.9433 3.94051C79.2829 3.55569 79.7681 3.36328 80.3989 3.36328H82.0486V10.6267H80.8841V7.45196H80.5444C80.3504 7.45196 80.1563 7.50006 79.9622 7.69247C79.7681 7.83678 79.7196 8.12539 79.574 8.51021L79.2344 10.5305H78.2155ZM80.4474 4.32532C80.1077 4.32532 79.8651 4.46963 79.7681 4.66204C79.6225 4.85445 79.574 5.09496 79.574 5.47977C79.574 5.86459 79.6225 6.057 79.8166 6.24941C80.0107 6.39372 80.2048 6.44182 80.4474 6.44182H80.8841V4.37342H80.4474V4.32532Z" fill="white"/>
<path d="M3.49344 16.5437L1.60114 22.2197H0.242554V13.2246H1.64965V18.9007H1.69818L3.639 13.2246H5.0461V22.2197H3.54196L3.49344 16.5437Z" fill="white"/>
<path d="M11.8876 22.2197V18.2753H10.2864V22.2197H8.87927V13.2246H10.2864V16.9285H11.9361V13.2246H13.3432V22.2197H11.8876Z" fill="white"/>
<path d="M20.3302 22.2197V18.2753H18.632V22.2197H17.2249V13.2246H18.632V16.9285H20.3302V13.2246H21.7373V22.2197H20.3302Z" fill="white"/>
<path d="M30.0343 19.9106C30.0343 20.6802 29.8402 21.3056 29.5006 21.6904C29.1124 22.0752 28.6272 22.2676 27.7539 22.2676C26.9775 22.2676 26.3953 22.0752 26.1042 21.6904C25.7645 21.3056 25.5704 20.7283 25.5704 20.0549V15.5333C25.5704 15.1485 25.6189 14.8599 25.716 14.5712C25.7645 14.2345 25.9101 13.994 26.1042 13.8016C26.2982 13.6092 26.4923 13.4168 26.7835 13.2725C27.0261 13.1282 27.4142 13.0801 27.8024 13.0801C28.2391 13.0801 28.5787 13.1282 28.8698 13.2725C29.1124 13.4168 29.4036 13.513 29.5491 13.7054C29.7432 13.8978 29.8888 14.1383 29.9373 14.4751C29.9858 14.8118 30.0829 15.1004 30.0829 15.4852V19.8625H30.0343V19.9106ZM28.6272 15.4371C28.6272 15.1966 28.5787 15.0042 28.4332 14.7637C28.2876 14.5712 28.0935 14.4269 27.8024 14.4269C27.6083 14.4269 27.4627 14.475 27.4142 14.5712C27.2687 14.6193 27.2201 14.7637 27.1716 14.8118C27.1231 14.9561 27.0261 15.0523 27.0261 15.1966C27.0261 15.3409 26.9775 15.4371 26.9775 15.5814V20.1511C26.9775 20.3916 27.026 20.584 27.1716 20.7764C27.3172 20.9688 27.5113 21.0169 27.8024 21.0169C28.142 21.0169 28.3361 20.8726 28.4332 20.6802C28.5787 20.4878 28.6272 20.2473 28.6272 20.0068V15.4371Z" fill="white"/>
<path d="M37.2639 17.505C37.6521 17.6493 37.9432 17.8898 38.0888 18.2746C38.2344 18.6594 38.3314 19.0442 38.3314 19.5253C38.3314 20.4873 38.1373 21.1607 37.7006 21.5937C37.3125 22.0266 36.6817 22.219 35.8568 22.219H33.916V13.1758H35.9054C36.7302 13.1758 37.3125 13.3682 37.6521 13.8011C38.0403 14.234 38.2344 14.8113 38.2344 15.629C38.2344 16.0619 38.1858 16.3986 38.0403 16.6872C37.8947 17.0239 37.6521 17.2645 37.2639 17.3607V17.505ZM36.8758 15.6771C36.8758 15.2442 36.8273 15.0037 36.6332 14.8113C36.4391 14.6188 36.1965 14.5707 35.8083 14.5707H35.3716V16.8315H35.8083C36.1965 16.8315 36.4391 16.6872 36.6332 16.4948C36.7787 16.3505 36.8758 16.0619 36.8758 15.6771ZM36.9243 19.3328C36.9243 18.8999 36.8758 18.5632 36.6817 18.3708C36.5361 18.1784 36.245 18.0341 35.8568 18.0341H35.3231V20.824H35.9054C36.148 20.824 36.2935 20.7759 36.4876 20.6797C36.6332 20.6316 36.7302 20.4873 36.8273 20.343C36.8758 20.1987 36.9728 20.0063 36.9728 19.8139V19.3328H36.9243Z" fill="white"/>
<path d="M45.4639 22.2197L45.0758 20.2956H43.4261C43.3775 20.6323 43.2805 20.9209 43.232 21.2577C43.1835 21.5944 43.0864 21.883 43.0379 22.2197H41.5823C41.9219 20.6804 42.213 19.1893 42.4556 17.7462C42.7953 16.2069 43.0864 14.7639 43.329 13.2246H44.9302L46.774 22.2197H45.4639ZM44.2024 15.293C44.1539 15.9183 44.0083 16.5437 43.9598 17.1209C43.8142 17.7462 43.7657 18.3715 43.6201 19.045H44.8817L44.2994 15.293H44.2024Z" fill="white"/>
<path d="M54.7314 13.2246V20.9209H55.3136V23.9514H54.1006V22.2678H50.2675V13.2246H51.6746V20.9209H53.2757V13.2246H54.7314Z" fill="white"/>
<path d="M61.961 16.5437L60.0687 22.2197H58.7101V13.2246H60.1172V18.9007L62.058 13.2246H63.4651V22.2197H62.058L61.961 16.5437Z" fill="white"/>
<path d="M66.9586 22.2194L67.4923 19.3814C67.5409 19.0447 67.6379 18.8042 67.832 18.5637C67.9775 18.3232 68.1716 18.1308 68.4142 17.9865C67.9776 17.7941 67.6864 17.5535 67.5409 17.2168C67.3953 16.832 67.2983 16.4472 67.2983 15.9662C67.2983 15.1003 67.4923 14.3788 67.929 13.9459C68.3657 13.513 68.948 13.2725 69.7243 13.2725H71.8107V22.2675H70.3551V18.4194H69.9669C69.7243 18.4194 69.5302 18.4675 69.2876 18.6599C69.0935 18.8523 68.8994 19.189 68.8509 19.67L68.4142 22.2194H66.9586ZM69.7728 14.5231C69.3361 14.5231 69.0935 14.6674 68.8994 14.9079C68.7054 15.1484 68.6568 15.4852 68.6568 15.9181C68.6568 16.351 68.8024 16.6877 68.9965 16.7839C69.1906 16.9763 69.5302 17.0244 69.8213 17.0244H70.4036V14.475H69.7728V14.5231Z" fill="white"/>
<path d="M78.3124 20.2471L77.6817 18.6116L77.0994 17.0242H77.0509V22.2192H75.6438V13.2241H77.0509L78.0698 15.7254L78.7976 17.6976H78.8462L79.6225 15.6774L80.5444 13.1279H81.903V22.123H80.4959V16.928H80.4473L79.8651 18.5154L79.2343 20.1508H78.3124V20.2471Z" fill="white"/>
<path d="M81.9515 24.9131C62.2035 44.0577 22.7077 40.7387 8.39409 24.9131H0.194092C11.0142 36.2652 26.5408 40.5463 39.5444 41.1235C40.903 41.1716 42.213 41.1716 43.5231 41.1716C51.9657 41.0273 61.3302 39.1994 69.5302 34.9183C74.2367 32.5132 78.5065 29.2423 81.9515 24.9131Z" fill="#DA2229"/>
<path d="M81.9514 24.9131C81.9514 25.0093 81.9514 25.0093 81.9514 24.9131C81.6118 25.1536 81.3207 25.346 81.0781 25.5384C59.5349 39.7767 29.6461 36.9867 16.7881 24.9131H8.39404C22.7562 40.7387 62.252 44.1058 81.9514 24.9131Z" fill="#14A0D1"/>
<path d="M77.245 26.9336C67.4438 30.6856 58.2734 32.3211 50.2189 32.3692C38.9621 32.4173 30.0828 29.4349 25.3763 24.9133H18.2923H16.8367C29.5976 36.8908 59.1952 39.7288 80.6899 25.7792C80.8355 25.7311 81.0296 25.5868 81.1266 25.4425C81.4663 25.2501 81.7089 25.0576 82 24.8652C80.3988 25.683 78.7976 26.3083 77.245 26.9336Z" fill="white"/>
<path d="M25.3763 24.9133C30.0343 29.3387 38.7195 32.3211 49.7823 32.3211H50.2189C58.2734 32.273 67.4923 30.5894 77.245 26.8855C78.7976 26.2602 80.3988 25.6349 81.9515 24.9133C78.5065 29.1463 74.2367 32.4654 69.4817 34.9186C61.2817 39.2478 51.9172 41.0757 43.4746 41.1719H42.5042C41.5337 41.1719 40.5148 41.1719 39.4959 41.1238C26.4438 40.5465 11.0142 36.2654 0.14557 24.9133H8.24853H16.6426H18.0982H25.3763ZM25.3763 24.8652H18.2923H16.8367H8.44261H0.24261C0.194089 24.8652 0.194087 24.8652 0.0970459 24.9133V25.0577C5.19172 30.3008 11.5479 34.4376 19.0201 37.2275C25.2793 39.5845 32.4604 40.9795 39.5444 41.2681C40.5633 41.3162 41.5337 41.3162 42.5527 41.3162H43.5231C47.987 41.2681 52.4024 40.7389 56.6237 39.7288C61.2817 38.6706 65.6485 37.0832 69.5302 35.0629C74.5278 32.4173 78.7491 29.0501 82 25.0095V24.9614V24.9133V24.8652H81.9515H81.903C80.3503 25.5387 78.7491 26.2602 77.1965 26.8374C68.1231 30.3008 58.8071 32.2249 50.2189 32.273H49.7823C39.2533 32.273 30.4225 29.5311 25.5219 24.8652C25.4249 24.8652 25.4249 24.8652 25.3763 24.8652Z" fill="#CFCECB"/>
</g>
<defs>
<clipPath id="clip0_287_663">
<rect width="82" height="40.4058" fill="white" transform="translate(0 0.910156)"/>
</clipPath>
</defs>
</svg>
