<svg width="214" height="35" viewBox="0 0 214 35" fill="none" xmlns="http://www.w3.org/2000/svg">
<g clip-path="url(#clip0_106_79)">
<path d="M16.8325 1.85742C7.5448 1.85742 0 9.26172 0 18.4289C0 27.5962 7.5448 35.0005 16.8325 35.0005C26.1203 35.0005 33.6651 27.5727 33.6651 18.4289C33.6651 9.28523 26.1441 1.85742 16.8325 1.85742ZM21.3451 22.895C20.1035 24.0938 18.5994 24.705 16.8325 24.705C15.0657 24.705 13.5615 24.0938 12.32 22.895C11.1023 21.6727 10.5054 20.1919 10.5054 18.4525C10.5054 16.713 11.1023 15.2322 12.32 14.0334C13.5615 12.8111 15.0657 12.1999 16.8325 12.1999C18.5994 12.1999 20.1035 12.8111 21.3451 14.0334C22.5866 15.2322 23.1835 16.713 23.1835 18.4525C23.1835 20.1919 22.5628 21.6962 21.3451 22.895Z" fill="#307FE2"/>
<path d="M47.7041 31.7567C46.4626 32.9555 44.9584 33.5666 43.1916 33.5666C41.4247 33.5666 39.9206 32.9555 38.679 31.7567C37.4613 30.5344 36.8644 29.0535 36.8644 27.3141C36.8644 25.5747 37.4613 24.0938 38.679 22.895C39.9206 21.6727 41.4247 21.0616 43.1916 21.0616C44.9584 21.0616 46.4626 21.6727 47.7041 22.895C48.9457 24.0938 49.5426 25.5747 49.5426 27.3141C49.5426 29.0535 48.9218 30.5579 47.7041 31.7567Z" fill="#307FE2"/>
<path d="M49.0173 3.29127H37.4136V18.0764H49.0173V3.29127Z" fill="#307FE2"/>
<path d="M87.362 21.9077V33.449H80.1037V28.6303H58.9735C59.1645 24.3758 59.2361 20.3798 59.2361 16.6894C59.2361 12.999 59.1406 9.00307 58.9735 4.74853H66.8287V22.0017H78.122V4.72503H85.9772C85.8101 8.48594 85.7384 12.4819 85.7384 16.7364C85.7384 19.04 85.7384 20.7559 85.7623 21.9077H87.362Z" fill="#F0F0F0"/>
<path d="M97.8913 4.77204L97.3183 23.2475L105.436 4.77204H117.732C117.565 8.48594 117.493 12.4584 117.493 16.6894C117.493 20.9205 117.565 24.9399 117.732 28.6303H109.137L109.734 10.6485L101.64 28.6303H89.678C89.869 24.3758 89.9406 20.3798 89.9406 16.6894C89.9406 12.999 89.8451 9.02657 89.678 4.77204H97.8913Z" fill="#F0F0F0"/>
<path d="M151.779 8.88554C149.726 6.93456 146.455 5.66526 142.038 5.17164L141.68 5.12463V4.77204C141.68 3.3852 141.68 2.30394 141.704 1.55176H133.108L133.156 5.12463L132.798 5.17164C128.405 5.68876 125.158 6.93456 123.128 8.88554C121.123 10.8365 120.096 13.3986 120.096 16.5249C120.096 19.6512 121.123 22.2603 123.152 24.1878C125.205 26.1387 128.429 27.3845 132.798 27.9017L133.156 27.9487L133.037 32.1797H141.632V27.9722L141.99 27.9252C150.633 26.9379 154.859 23.224 154.859 16.5249C154.859 13.3986 153.833 10.8365 151.779 8.88554ZM133.228 20.9675L132.607 20.8499C130.936 20.5209 129.694 19.9802 128.906 19.2751C128.094 18.5464 127.688 17.6297 127.688 16.5249C127.688 14.3389 129.336 12.905 132.607 12.2469L133.228 12.1293V20.9675ZM146.049 19.2986C145.237 20.0037 143.972 20.5444 142.253 20.8735L141.632 20.991V20.4739C141.632 18.4994 141.632 17.042 141.68 16.0548L141.728 12.0823L142.348 12.1998C145.619 12.858 147.291 14.2919 147.291 16.4779C147.291 17.6062 146.861 18.5464 146.049 19.2751V19.2986Z" fill="#F0F0F0"/>
<path d="M172.122 4.77204C176.562 4.77204 179.642 5.54773 181.385 7.0991C183.128 8.65048 183.988 10.813 183.988 13.6337C183.988 15.5612 183.654 17.2066 182.961 18.5464C182.269 19.8862 181.051 20.944 179.308 21.6961C177.565 22.4483 175.178 22.8244 172.122 22.8244H165.174V28.6068H156.96C157.127 24.3523 157.223 20.3563 157.223 16.6659C157.223 12.9755 157.127 8.97956 156.96 4.72503H165.174L172.122 4.74853V4.77204ZM169.782 16.5014C171.62 16.5014 173.029 16.4309 173.936 16.2898C174.867 16.1488 175.512 15.8902 175.87 15.5141C176.228 15.1381 176.419 14.5974 176.419 13.8687C176.419 13.1401 176.252 12.5994 175.894 12.2469C175.56 11.8943 174.915 11.6357 173.984 11.4947C173.053 11.3536 171.644 11.3066 169.758 11.3066H165.15V16.5014H169.782Z" fill="#F0F0F0"/>
<path d="M205.333 28.6303C204.903 27.3845 204.33 25.8097 203.638 23.9292H192.965L191.294 28.6303H182.89L192.249 4.72503H204.545L213.976 28.6303H205.309H205.333ZM201.728 18.7814C200.868 16.4779 200.009 14.1743 199.125 11.8708L198.313 9.73174C197.526 11.7297 196.38 14.7385 194.875 18.7814H201.728Z" fill="#F0F0F0"/>
</g>
<defs>
<clipPath id="clip0_106_79">
<rect width="214" height="35" fill="white"/>
</clipPath>
</defs>
</svg>
