<svg width="74" height="74" viewBox="0 0 74 74" fill="none" xmlns="http://www.w3.org/2000/svg">
<path d="M58.2627 0H15.7373C7.04584 0 0 7.04584 0 15.7373V58.2627C0 66.9542 7.04584 74 15.7373 74H58.2627C66.9542 74 74 66.9542 74 58.2627V15.7373C74 7.04584 66.9542 0 58.2627 0Z" fill="white"/>
<path d="M29.1446 20.3442C19.9446 20.3442 12.4886 27.8002 12.4886 37.0002C12.4886 46.2003 19.9446 53.6562 29.1446 53.6562C38.3447 53.6562 45.8006 46.2003 45.8006 37.0002C45.8006 27.8002 38.3447 20.3442 29.1446 20.3442ZM33.5916 41.4738C32.3667 42.6854 30.8888 43.2845 29.1313 43.2845C27.3739 43.2845 25.8827 42.6854 24.6711 41.4738C23.4728 40.2489 22.8604 38.7577 22.8604 37.0002C22.8604 35.2428 23.4595 33.7516 24.6711 32.5533C25.896 31.3284 27.3739 30.716 29.1313 30.716C30.8888 30.716 32.38 31.3284 33.5916 32.5533C34.8165 33.7649 35.4156 35.2428 35.4156 37.0002C35.4156 38.7577 34.8031 40.2489 33.5916 41.4738Z" fill="#307FE2"/>
<path d="M59.6873 51.233C58.4624 52.4446 56.9845 53.0438 55.227 53.0438C53.4696 53.0438 51.9784 52.4446 50.7668 51.233C49.5685 50.0081 48.9561 48.517 48.9561 46.7595C48.9561 45.002 49.5552 43.5108 50.7668 42.3126C51.9917 41.0877 53.4696 40.4752 55.227 40.4752C56.9845 40.4752 58.4757 41.0877 59.6873 42.3126C60.9122 43.5242 61.5113 45.002 61.5113 46.7595C61.5113 48.517 60.8989 50.0081 59.6873 51.233Z" fill="#307FE2"/>
<path d="M60.9654 22.621H49.4886V37.4795H60.9654V22.621Z" fill="#307FE2"/>
</svg>
