<svg width="214" height="35" viewBox="0 0 214 35" fill="none" xmlns="http://www.w3.org/2000/svg">
<g clip-path="url(#clip0_106_61)">
<path d="M16.8325 1.85696C7.5448 1.85696 0 9.26126 0 18.4285C0 27.5957 7.5448 35 16.8325 35C26.1203 35 33.6651 27.5722 33.6651 18.4285C33.6651 9.28477 26.1441 1.85696 16.8325 1.85696ZM21.3451 22.8946C20.1035 24.0934 18.5994 24.7045 16.8325 24.7045C15.0657 24.7045 13.5615 24.0934 12.32 22.8946C11.1023 21.6723 10.5054 20.1914 10.5054 18.452C10.5054 16.7126 11.1023 15.2317 12.32 14.0329C13.5615 12.8106 15.0657 12.1995 16.8325 12.1995C18.5994 12.1995 20.1035 12.8106 21.3451 14.0329C22.5866 15.2317 23.1835 16.7126 23.1835 18.452C23.1835 20.1914 22.5628 21.6958 21.3451 22.8946Z" fill="#307FE2"/>
<path d="M47.7041 31.7562C46.4626 32.955 44.9584 33.5662 43.1916 33.5662C41.4247 33.5662 39.9206 32.955 38.679 31.7562C37.4613 30.5339 36.8644 29.0531 36.8644 27.3136C36.8644 25.5742 37.4613 24.0934 38.679 22.8946C39.9206 21.6723 41.4247 21.0611 43.1916 21.0611C44.9584 21.0611 46.4626 21.6723 47.7041 22.8946C48.9457 24.0934 49.5426 25.5742 49.5426 27.3136C49.5426 29.0531 48.9218 30.5574 47.7041 31.7562Z" fill="#307FE2"/>
<path d="M49.0173 3.29081H37.4136V18.0759H49.0173V3.29081Z" fill="#307FE2"/>
<path d="M87.362 21.9073V33.4486H80.1037V28.63H58.9735C59.1645 24.3754 59.2361 20.3795 59.2361 16.6891C59.2361 12.9987 59.1406 9.0027 58.9735 4.74817H66.8287V22.0014H78.122V4.72466H85.9772C85.8101 8.48558 85.7384 12.4815 85.7384 16.7361C85.7384 19.0396 85.7384 20.7556 85.7623 21.9073H87.362Z" fill="#1D1D1B"/>
<path d="M97.8913 4.77167L97.3183 23.2472L105.436 4.77167H117.732C117.565 8.48558 117.493 12.458 117.493 16.6891C117.493 20.9201 117.565 24.9396 117.732 28.63H109.137L109.734 10.6481L101.64 28.63H89.678C89.869 24.3754 89.9406 20.3795 89.9406 16.6891C89.9406 12.9987 89.8451 9.02621 89.678 4.77167H97.8913Z" fill="#1D1D1B"/>
<path d="M151.779 8.88517C149.726 6.9342 146.455 5.66489 142.038 5.17127L141.68 5.12426V4.77167C141.68 3.38484 141.68 2.30357 141.704 1.55139H133.108L133.156 5.12426L132.798 5.17127C128.405 5.6884 125.158 6.9342 123.128 8.88517C121.123 10.8361 120.096 13.3983 120.096 16.5245C120.096 19.6508 121.123 22.2599 123.152 24.1874C125.205 26.1384 128.429 27.3842 132.798 27.9013L133.156 27.9483L133.037 32.1793H141.632V27.9718L141.99 27.9248C150.633 26.9376 154.859 23.2237 154.859 16.5245C154.859 13.3983 153.833 10.8361 151.779 8.88517ZM133.228 20.9671L132.607 20.8496C130.936 20.5205 129.694 19.9799 128.906 19.2747C128.094 18.546 127.688 17.6293 127.688 16.5245C127.688 14.3385 129.336 12.9046 132.607 12.2465L133.228 12.129V20.9671ZM146.049 19.2982C145.237 20.0034 143.972 20.544 142.253 20.8731L141.632 20.9906V20.4735C141.632 18.499 141.632 17.0417 141.68 16.0544L141.728 12.0819L142.348 12.1995C145.619 12.8576 147.291 14.2915 147.291 16.4775C147.291 17.6058 146.861 18.546 146.049 19.2747V19.2982Z" fill="#1D1D1B"/>
<path d="M172.122 4.77167C176.562 4.77167 179.642 5.54736 181.385 7.09874C183.128 8.65012 183.988 10.8126 183.988 13.6333C183.988 15.5608 183.654 17.2062 182.961 18.546C182.269 19.8858 181.051 20.9436 179.308 21.6958C177.565 22.448 175.178 22.8241 172.122 22.8241H165.174V28.6065H156.96C157.127 24.3519 157.223 20.356 157.223 16.6656C157.223 12.9752 157.127 8.9792 156.96 4.72466H165.174L172.122 4.74817V4.77167ZM169.782 16.501C171.62 16.501 173.029 16.4305 173.936 16.2895C174.867 16.1484 175.512 15.8899 175.87 15.5138C176.228 15.1377 176.419 14.5971 176.419 13.8684C176.419 13.1397 176.252 12.5991 175.894 12.2465C175.56 11.8939 174.915 11.6353 173.984 11.4943C173.053 11.3533 171.644 11.3063 169.758 11.3063H165.15V16.501H169.782Z" fill="#1D1D1B"/>
<path d="M205.333 28.63C204.903 27.3842 204.33 25.8093 203.638 23.9288H192.965L191.294 28.63H182.89L192.249 4.72466H204.545L213.976 28.63H205.309H205.333ZM201.728 18.7811C200.868 16.4775 200.009 14.174 199.125 11.8704L198.313 9.73138C197.526 11.7294 196.38 14.7381 194.875 18.7811H201.728Z" fill="#1D1D1B"/>
</g>
<defs>
<clipPath id="clip0_106_61">
<rect width="214" height="35" fill="white"/>
</clipPath>
</defs>
</svg>
