<svg width="70" height="48" viewBox="0 0 70 48" fill="none" xmlns="http://www.w3.org/2000/svg">
<path d="M23.6128 0C10.5701 0 0 10.7068 0 23.9182C0 37.1296 10.5701 47.8364 23.6128 47.8364C36.6555 47.8364 47.2255 37.1296 47.2255 23.9182C47.2255 10.7068 36.6555 0 23.6128 0ZM29.9171 30.3423C28.1805 32.0821 26.0854 32.9425 23.5939 32.9425C21.1024 32.9425 18.9884 32.0821 17.2707 30.3423C15.572 28.5833 14.7037 26.4419 14.7037 23.9182C14.7037 21.3945 15.5531 19.2531 17.2707 17.5324C19.0072 15.7734 21.1024 14.8939 23.5939 14.8939C26.0854 14.8939 28.1994 15.7734 29.9171 17.5324C31.6536 19.2722 32.5029 21.3945 32.5029 23.9182C32.5029 26.4419 31.6347 28.5833 29.9171 30.3423Z" fill="#307FE2"/>
<path d="M66.9123 44.3567C65.1758 46.0965 63.0806 46.9569 60.5891 46.9569C58.0976 46.9569 55.9836 46.0965 54.2659 44.3567C52.5672 42.5977 51.6989 40.4564 51.6989 37.9326C51.6989 35.4089 52.5483 33.2675 54.2659 31.5468C56.0025 29.7878 58.0976 28.9083 60.5891 28.9083C63.0806 28.9083 65.1946 29.7878 66.9123 31.5468C68.6488 33.2866 69.4982 35.4089 69.4982 37.9326C69.4982 40.4564 68.6299 42.5977 66.9123 44.3567Z" fill="#307FE2"/>
<path d="M68.7243 3.26939H52.4539V24.6065H68.7243V3.26939Z" fill="#307FE2"/>
</svg>
