<svg width="30" height="30" viewBox="0 0 30 30" fill="none" xmlns="http://www.w3.org/2000/svg">
<path d="M28.5105 10.2889C29.0494 9.53032 28.5062 9.01388 27.5762 9.03959C27.5301 9.04174 27.484 9.04174 27.4369 9.04174C24.7743 9.04174 22.655 6.88489 22.655 4.22231C22.655 4.05965 22.7115 3.76954 22.7591 3.52512L22.7621 3.50979C22.7687 3.47391 22.7753 3.43914 22.7816 3.40601C22.7957 3.33131 22.8083 3.26495 22.8157 3.21299C22.9528 2.29368 22.3796 1.70759 21.5621 2.15118C19.7235 3.14871 18.0198 4.94126 18.0198 7.18061C18.015 8.11266 18.2449 9.03092 18.6884 9.85069H23.2786C23.6338 9.84884 23.981 9.95576 24.2737 10.1571C24.5664 10.3584 24.7904 10.6444 24.9158 10.9768L25.5501 12.5936C26.7672 12.1961 27.753 11.355 28.5105 10.2889ZM6.31732 11.0936C6.446 11.0059 6.59227 10.9474 6.74591 10.9221H23.2775C23.4153 10.9202 23.5504 10.9609 23.6642 11.0388C23.778 11.1167 23.8648 11.2279 23.9128 11.3572L29.9323 26.6962C30.1862 27.3498 29.6944 28.0644 28.9798 28.0644H14.5268C14.0754 28.0682 13.6333 27.9351 13.259 27.6826C12.8847 27.4301 12.5956 27.0701 12.43 26.6501L7.58593 14.3262V28.0655H1.01252C0.29786 28.0655 -0.195012 27.3648 0.0749961 26.7433L6.09446 11.4043C6.13819 11.2834 6.21688 11.1782 6.32054 11.1022L6.31732 11.0936ZM17.1487 20.1624C17.1487 20.1624 17.1487 20.1624 17.1487 20.1624H20.3406C21.0553 20.1624 21.5471 19.4628 21.277 18.8092L19.9431 15.5262C19.8652 15.3421 19.7349 15.185 19.5684 15.0745C19.4019 14.964 19.2065 14.905 19.0066 14.9048H15.8137C15.099 14.9048 14.6072 15.6044 14.8772 16.258L16.2112 19.541C16.2891 19.7252 16.4196 19.8824 16.5863 19.993C16.753 20.1035 16.9486 20.1624 17.1487 20.1624Z" fill="url(#paint0_linear_206_224)"/>
<defs>
<linearGradient id="paint0_linear_206_224" x1="0" y1="15.0328" x2="30" y2="15.0328" gradientUnits="userSpaceOnUse">
<stop stop-color="#00C6FB"/>
<stop offset="1" stop-color="#005BEA"/>
</linearGradient>
</defs>
</svg>
