<svg width="30" height="30" viewBox="0 0 30 30" fill="none" xmlns="http://www.w3.org/2000/svg">
<g clip-path="url(#clip0_206_223)">
<path d="M27.118 5.75887C27.0046 5.62933 26.8656 5.5246 26.7098 5.45122C26.5541 5.37785 26.3848 5.33741 26.2127 5.33244C23.5388 5.26254 20.1553 2.40338 17.9183 1.28138C16.5365 0.590476 15.6243 0.134921 14.9392 0.014915C14.8001 -0.00535481 14.6587 -0.0049622 14.5197 0.0160801C13.8347 0.136086 12.9224 0.591641 11.5417 1.28255C9.30473 2.40338 5.92127 5.26254 3.24736 5.33244C3.07513 5.33767 2.9058 5.37821 2.74987 5.45157C2.59395 5.52492 2.45475 5.62952 2.34091 5.75887C2.10495 6.02584 1.9832 6.37476 2.00187 6.73057C2.57626 18.4084 6.76481 25.6355 14.1143 29.8357C14.3054 29.9441 14.5174 30 14.7283 30C14.9392 30 15.1512 29.9441 15.3435 29.8357C22.6929 25.6355 26.8803 18.4084 27.4559 6.73057C27.4756 6.37481 27.3542 6.02563 27.118 5.75887ZM21.2738 10.3517L15.072 19.5036C14.8495 19.8321 14.4999 20.05 14.1539 20.05C13.8067 20.05 13.421 19.8601 13.1775 19.6166L8.80607 15.244C8.66335 15.1007 8.58321 14.9067 8.58321 14.7045C8.58321 14.5023 8.66335 14.3083 8.80607 14.1651L9.88612 13.0827C10.0297 12.9406 10.2235 12.8608 10.4256 12.8608C10.6276 12.8608 10.8215 12.9406 10.965 13.0827L13.8079 15.9256L18.7467 8.63551C18.861 8.46869 19.0366 8.35386 19.2353 8.31609C19.4339 8.27833 19.6395 8.3207 19.807 8.43395L21.0711 9.29146C21.2381 9.40556 21.3532 9.58111 21.3912 9.77977C21.4292 9.97843 21.387 10.1841 21.2738 10.3517Z" fill="url(#paint0_linear_206_223)"/>
</g>
<defs>
<linearGradient id="paint0_linear_206_223" x1="2" y1="15" x2="27.4579" y2="15" gradientUnits="userSpaceOnUse">
<stop stop-color="#00C6FB"/>
<stop offset="1" stop-color="#005BEA"/>
</linearGradient>
<clipPath id="clip0_206_223">
<rect width="30" height="30" fill="white"/>
</clipPath>
</defs>
</svg>
