<svg width="30" height="30" viewBox="0 0 30 30" fill="none" xmlns="http://www.w3.org/2000/svg">
<g clip-path="url(#clip0_206_225)">
<path d="M27.4811 14.3152C27.2084 14.0843 26.859 13.9643 26.502 13.9788C26.1451 13.9933 25.8066 14.1413 25.5536 14.3936L25.5522 14.3949C25.3021 14.6487 25.1549 14.9861 25.1389 15.3421C25.123 15.6981 25.2395 16.0473 25.4659 16.3224L25.4699 16.3264L12.4647 29.3316L12.4607 29.3355C12.0348 29.761 11.4574 30 10.8554 30C10.2533 30 9.67591 29.761 9.24998 29.3355L9.24466 29.3302L0.66845 20.754L0.664464 20.75C0.23899 20.3241 0 19.7467 0 19.1446C0 18.5426 0.23899 17.9652 0.664464 17.5393L0.669778 17.5339L13.6749 4.52881L13.6789 4.53279C14.2315 5.08541 15.1269 5.08541 15.6795 4.53279L15.6835 4.52881L15.6901 4.52217C15.9554 4.25686 16.1044 3.89705 16.1044 3.52187C16.1044 3.1467 15.9554 2.78689 15.6901 2.52158L15.6861 2.5176L17.5353 0.668449L17.5393 0.664464C17.9652 0.23899 18.5426 0 19.1446 0C19.7467 0 20.3241 0.23899 20.75 0.664464L20.7553 0.669778L29.3316 9.24599L29.3355 9.24998C29.761 9.67591 30 10.2533 30 10.8554C30 11.4574 29.761 12.0348 29.3355 12.4607L29.3302 12.4661L27.4811 14.3152ZM18.5555 18.9049C18.62 18.9656 18.7053 18.9994 18.7939 18.9994C18.8826 18.9994 18.9678 18.9656 19.0324 18.9049L19.8786 18.0587L19.8826 18.0547C19.9446 17.9924 19.9795 17.9081 19.9795 17.8202C19.9795 17.7323 19.9446 17.648 19.8826 17.5858L19.8773 17.5804C19.8127 17.5197 19.7274 17.4859 19.6388 17.4859C19.5502 17.4859 19.4649 17.5197 19.4004 17.5804L18.5528 18.428C18.4924 18.4925 18.4589 18.5776 18.4591 18.666C18.4594 18.7544 18.4934 18.8394 18.5542 18.9035L18.5555 18.9049ZM16.9136 20.5481C16.9781 20.6088 17.0634 20.6426 17.152 20.6426C17.2406 20.6426 17.3259 20.6088 17.3905 20.5481L18.2367 19.7019C18.3682 19.5704 18.3682 19.3552 18.2367 19.2237C18.1052 19.0922 17.89 19.0922 17.7584 19.2237L16.9122 20.0699C16.8508 20.1343 16.8166 20.22 16.8166 20.309C16.8166 20.398 16.8508 20.4836 16.9122 20.5481H16.9136ZM12.2907 25.1696C12.355 25.2311 12.4404 25.2656 12.5293 25.2661C12.6182 25.2666 12.704 25.233 12.7689 25.1723L15.4457 22.4956L15.4497 22.4916C15.5117 22.4293 15.5466 22.345 15.5466 22.2571C15.5466 22.1692 15.5117 22.0849 15.4497 22.0226L15.4444 22.0173C15.3801 21.956 15.2947 21.9218 15.2059 21.9218C15.1171 21.9218 15.0317 21.956 14.9675 22.0173L12.2894 24.6954C12.2283 24.7596 12.194 24.8447 12.1935 24.9333C12.193 25.0219 12.2264 25.1074 12.2867 25.1723L12.2907 25.1696ZM22.5739 13.3588C22.9445 13.3584 23.2997 13.2109 23.5615 12.9487C23.8233 12.6865 23.9703 12.3311 23.9701 11.9606C23.9699 11.5901 23.8226 11.2348 23.5605 10.9729C23.2985 10.7109 22.9431 10.5638 22.5726 10.5638C22.2021 10.5638 21.8467 10.7109 21.5847 10.9729C21.3226 11.2348 21.1753 11.5901 21.1751 11.9606C21.1749 12.3311 21.3219 12.6865 21.5837 12.9487C21.8455 13.2109 22.2008 13.3584 22.5713 13.3588H22.5739ZM17.1195 16.3238L17.1235 16.3277C17.1543 16.3587 17.191 16.3832 17.2313 16.4C17.2717 16.4167 17.3149 16.4253 17.3586 16.4253C17.4023 16.4253 17.4455 16.4167 17.4859 16.4C17.5262 16.3832 17.5629 16.3587 17.5937 16.3277L17.5977 16.3238L17.7571 16.1644C17.8886 16.0328 17.8886 15.8176 17.7571 15.6861C17.6256 15.5546 17.4104 15.5546 17.2789 15.6861L17.1195 15.8455C17.0581 15.91 17.0238 15.9956 17.0238 16.0846C17.0238 16.1737 17.0581 16.2593 17.1195 16.3238ZM16.0036 17.4396C16.0679 17.5009 16.1533 17.5351 16.2421 17.5351C16.3309 17.5351 16.4163 17.5009 16.4805 17.4396L16.6399 17.2802C16.7714 17.1487 16.7714 16.9335 16.6399 16.802C16.5084 16.6705 16.2932 16.6705 16.1617 16.802L16.0049 16.9587C15.9421 17.0228 15.9067 17.1089 15.9062 17.1986C15.9057 17.2884 15.9415 17.3748 16.0036 17.4396ZM14.8878 18.5568C14.9524 18.6179 15.0379 18.652 15.1269 18.652C15.2158 18.652 15.3014 18.6179 15.366 18.5568L15.5254 18.3974C15.6569 18.2659 15.6569 18.0507 15.5254 17.9192C15.3939 17.7877 15.1787 17.7877 15.0472 17.9192L14.8878 18.0786C14.8268 18.1432 14.7931 18.2288 14.7936 18.3176C14.7941 18.4064 14.8287 18.4916 14.8904 18.5555L14.8878 18.5568ZM13.7719 19.6727C13.8364 19.7334 13.9217 19.7672 14.0103 19.7672C14.099 19.7672 14.1842 19.7334 14.2488 19.6727L14.4082 19.5133L14.4122 19.5093C14.4742 19.447 14.5091 19.3627 14.5091 19.2748C14.5091 19.1869 14.4742 19.1026 14.4122 19.0404L14.4069 19.035C14.3425 18.9743 14.2573 18.9406 14.1688 18.9408C14.0803 18.9411 13.9953 18.9753 13.9313 19.0364L13.7719 19.1958C13.7108 19.2598 13.6766 19.3448 13.6763 19.4333C13.6761 19.5218 13.7098 19.607 13.7706 19.6714L13.7719 19.6727ZM12.656 20.7872C12.7206 20.8479 12.8059 20.8817 12.8945 20.8817C12.9831 20.8817 13.0684 20.8479 13.1329 20.7872L13.2923 20.6278C13.4238 20.4963 13.4238 20.2811 13.2923 20.1496C13.1608 20.0181 12.9456 20.0181 12.8141 20.1496L12.6547 20.309C12.5933 20.3735 12.559 20.4591 12.559 20.5481C12.559 20.6371 12.5933 20.7228 12.6547 20.7872H12.656ZM11.5402 21.9031C11.6047 21.9638 11.69 21.9976 11.7786 21.9976C11.8672 21.9976 11.9525 21.9638 12.0171 21.9031L12.1765 21.7437C12.308 21.6122 12.308 21.397 12.1765 21.2654C12.045 21.1339 11.8298 21.1339 11.6982 21.2654L11.5388 21.4249C11.4774 21.4893 11.4432 21.5749 11.4432 21.664C11.4432 21.753 11.4788 21.8386 11.5402 21.9031ZM10.4243 23.0189C10.4885 23.0803 10.5739 23.1145 10.6627 23.1145C10.7516 23.1145 10.8369 23.0803 10.9012 23.0189L11.0593 22.8609C11.1908 22.7294 11.1908 22.5141 11.0593 22.3826C10.9278 22.2511 10.7126 22.2511 10.581 22.3826L10.423 22.5407C10.3616 22.6052 10.3273 22.6908 10.3273 22.7798C10.3273 22.8689 10.3629 22.9545 10.4243 23.0189ZM19.7178 10.5053C19.9808 10.7659 20.336 10.9121 20.7062 10.9121C21.0764 10.9121 21.4316 10.7659 21.6945 10.5053L21.7038 10.496C21.8324 10.3675 21.9345 10.2149 22.0041 10.0469C22.0737 9.87888 22.1095 9.69883 22.1095 9.51699C22.1095 9.33515 22.0737 9.1551 22.0041 8.98711C21.9345 8.81912 21.8324 8.6665 21.7038 8.53795L21.6945 8.52865C21.5647 8.39886 21.4107 8.29591 21.2411 8.22566C21.0715 8.15542 20.8897 8.11927 20.7062 8.11927C20.3355 8.11927 19.98 8.26653 19.7178 8.52865C19.5881 8.65844 19.4851 8.81253 19.4149 8.98211C19.3446 9.15168 19.3085 9.33344 19.3085 9.51699C19.3085 9.88769 19.4557 10.2432 19.7178 10.5053ZM10.4721 18.6033L10.4894 18.6206C10.6329 18.7647 10.8192 18.8587 11.0205 18.8884C11.2217 18.9182 11.4272 18.8822 11.6063 18.7858C11.7855 18.6893 11.9287 18.5376 12.0147 18.3532C12.1006 18.1689 12.1248 17.9616 12.0835 17.7624L12.0821 17.7584L11.6996 17.886C11.7231 17.9689 11.724 18.0565 11.7023 18.1399C11.6806 18.2233 11.637 18.2993 11.576 18.3602L11.5734 18.3629C11.5196 18.4153 11.4549 18.4552 11.384 18.4798C11.313 18.5045 11.2375 18.5131 11.1628 18.5053C11.0881 18.4974 11.0161 18.4732 10.9518 18.4344C10.8875 18.3955 10.8326 18.343 10.7909 18.2805L10.7923 18.2832C10.5053 17.9962 10.5213 17.6934 10.7126 17.5021L10.7152 17.4994C10.7758 17.4389 10.8514 17.3956 10.9343 17.3739C11.0172 17.3521 11.1043 17.3528 11.1868 17.3759L11.1895 17.3772L11.317 16.9946C11.1673 16.9595 11.0112 16.9631 10.8634 17.0052C10.7155 17.0473 10.5808 17.1264 10.4721 17.2351L10.4402 17.2696L10.4416 17.2683L10.4137 17.2948C10.3265 17.3823 10.2586 17.4869 10.214 17.602C10.1695 17.7171 10.1494 17.8402 10.1551 17.9636C10.1607 18.0869 10.1919 18.2076 10.2467 18.3182C10.3015 18.4288 10.3787 18.5268 10.4734 18.606L10.4708 18.6033H10.4721ZM13.5328 16.883L13.8835 16.5323L12.6241 16.2281L12.4807 15.2557L12.1459 15.5905L12.3186 16.6227L11.7155 16.0196L11.414 16.3211L12.7503 17.6575L13.0519 17.3559L12.7198 17.0238L12.672 16.6572L13.5328 16.883ZM14.3617 13.8542L14.7443 13.4717L15.8269 14.5543L16.1285 14.2528L15.0445 13.1688L15.443 12.7703L15.188 12.5152L14.1066 13.5965L14.3617 13.8542ZM14.2182 16.1644L15.1269 15.2557L14.8878 15.0166L14.2847 15.6197L13.9658 15.3009L14.4932 14.7735L14.2342 14.5145L13.7068 15.0418L13.4225 14.7576L14.0123 14.1678L13.7732 13.9286L12.8779 14.824L14.2182 16.1644ZM10.3924 19.9902L10.694 19.6886L9.35492 18.3496L9.05337 18.6511L10.3924 19.9902ZM7.8764 20.3382L8.25898 19.9556L9.34297 21.0396L9.64452 20.7381L8.56053 19.6541L8.94312 19.2715L8.68806 19.0164L7.61869 20.0858L7.8764 20.3382ZM16.8804 7.66784L16.8817 7.66917C17.1439 7.93102 17.4994 8.07801 17.8699 8.07782C18.2405 8.07763 18.5958 7.93028 18.8577 7.66817C19.1196 7.40606 19.2668 7.05065 19.2667 6.6801C19.2666 6.30954 19.1194 5.95418 18.8574 5.69216C18.5954 5.43014 18.24 5.28291 17.8694 5.28285C17.4989 5.28278 17.1435 5.42989 16.8814 5.69183C16.6193 5.95376 16.4719 6.30907 16.4717 6.67963C16.4715 7.05018 16.6185 7.40564 16.8804 7.66784ZM7.88969 16.6585C7.95424 16.7192 8.03952 16.753 8.12814 16.753C8.21675 16.753 8.30203 16.7192 8.36658 16.6585L10.9171 14.108C11.0486 13.9765 11.0486 13.7613 10.9171 13.6297C10.7856 13.4982 10.5704 13.4982 10.4389 13.6297L7.88836 16.1803C7.82696 16.2448 7.79271 16.3304 7.79271 16.4194C7.79271 16.5084 7.82829 16.5941 7.88969 16.6585ZM6.14814 16.5762C6.21239 16.6375 6.29778 16.6717 6.38659 16.6717C6.4754 16.6717 6.56079 16.6375 6.62504 16.5762L10.8175 12.3837C10.949 12.2522 10.949 12.037 10.8175 11.9055C10.686 11.774 10.4708 11.774 10.3393 11.9055L6.14814 16.0966C6.08674 16.1611 6.0525 16.2467 6.0525 16.3357C6.0525 16.4247 6.08674 16.5117 6.14814 16.5762ZM23.8157 11.6841C23.9474 11.7387 24.0601 11.8311 24.1393 11.9498C24.2186 12.0684 24.2609 12.2078 24.2609 12.3505C24.2609 12.4931 24.2186 12.6326 24.1393 12.7512C23.9802 12.9876 23.6789 13.1136 23.3989 13.058C22.4558 12.8704 22.8592 11.2879 23.8157 11.6841ZM20.1921 10.0231C20.0912 9.92223 20.0225 9.7937 19.9947 9.65378C19.9669 9.51386 19.9812 9.36883 20.0358 9.23704C20.0904 9.10524 20.1829 8.99259 20.3015 8.91334C20.4201 8.83409 20.5595 8.79179 20.7022 8.79179C20.8449 8.79179 20.9843 8.83409 21.1029 8.91334C21.2216 8.99259 21.314 9.10524 21.3686 9.23704C21.4232 9.36883 21.4375 9.51386 21.4097 9.65378C21.3819 9.7937 21.3132 9.92223 21.2123 10.0231L21.2057 10.0298C21.072 10.163 20.8909 10.2377 20.7022 10.2377C20.5135 10.2377 20.3324 10.163 20.1987 10.0298L20.1961 10.0271L20.1921 10.0231ZM17.3546 7.18563C17.2537 7.08474 17.1851 6.95622 17.1572 6.8163C17.1294 6.67638 17.1437 6.53135 17.1983 6.39955C17.2529 6.26776 17.3454 6.15511 17.464 6.07586C17.5826 5.9966 17.7221 5.9543 17.8647 5.9543C18.0074 5.9543 18.1468 5.9966 18.2654 6.07586C18.3841 6.15511 18.4765 6.26776 18.5311 6.39955C18.5857 6.53135 18.6 6.67638 18.5722 6.8163C18.5444 6.95622 18.4757 7.08474 18.3748 7.18563L18.3682 7.19227C18.2345 7.32547 18.0534 7.40026 17.8647 7.40026C17.676 7.40026 17.495 7.32547 17.3612 7.19227L17.3586 7.18961L17.3546 7.18563Z" fill="url(#paint0_linear_206_225)"/>
</g>
<defs>
<linearGradient id="paint0_linear_206_225" x1="0" y1="15" x2="30" y2="15" gradientUnits="userSpaceOnUse">
<stop stop-color="#00C6FB"/>
<stop offset="1" stop-color="#005BEA"/>
</linearGradient>
<clipPath id="clip0_206_225">
<rect width="30" height="30" fill="white"/>
</clipPath>
</defs>
</svg>
