<svg width="30" height="30" viewBox="0 0 30 30" fill="none" xmlns="http://www.w3.org/2000/svg">
<g clip-path="url(#clip0_206_226)">
<path d="M25.1786 20.3571H20.8929C20.597 20.3571 20.3571 20.597 20.3571 20.8929V25.1786C20.3571 25.4744 20.597 25.7143 20.8929 25.7143H25.1786C25.4744 25.7143 25.7143 25.4744 25.7143 25.1786V20.8929C25.7143 20.597 25.4744 20.3571 25.1786 20.3571Z" fill="url(#paint0_linear_206_226)"/>
<path d="M19.8214 16.0714H16.6071C16.3113 16.0714 16.0714 16.3113 16.0714 16.6071V19.8214C16.0714 20.1173 16.3113 20.3571 16.6071 20.3571H19.8214C20.1173 20.3571 20.3571 20.1173 20.3571 19.8214V16.6071C20.3571 16.3113 20.1173 16.0714 19.8214 16.0714Z" fill="url(#paint1_linear_206_226)"/>
<path d="M29.4643 25.7143H26.25C25.9541 25.7143 25.7143 25.9541 25.7143 26.25V29.4643C25.7143 29.7602 25.9541 30 26.25 30H29.4643C29.7602 30 30 29.7602 30 29.4643V26.25C30 25.9541 29.7602 25.7143 29.4643 25.7143Z" fill="url(#paint2_linear_206_226)"/>
<path d="M29.4643 16.0714H27.3214C27.0256 16.0714 26.7857 16.3113 26.7857 16.6071V18.75C26.7857 19.0459 27.0256 19.2857 27.3214 19.2857H29.4643C29.7602 19.2857 30 19.0459 30 18.75V16.6071C30 16.3113 29.7602 16.0714 29.4643 16.0714Z" fill="url(#paint3_linear_206_226)"/>
<path d="M18.75 26.7857H16.6071C16.3113 26.7857 16.0714 27.0256 16.0714 27.3214V29.4643C16.0714 29.7602 16.3113 30 16.6071 30H18.75C19.0459 30 19.2857 29.7602 19.2857 29.4643V27.3214C19.2857 27.0256 19.0459 26.7857 18.75 26.7857Z" fill="url(#paint4_linear_206_226)"/>
<path d="M27.8571 0H18.2143C17.646 0 17.1009 0.225765 16.6991 0.627628C16.2972 1.02949 16.0714 1.57454 16.0714 2.14286V11.7857C16.0714 12.354 16.2972 12.8991 16.6991 13.3009C17.1009 13.7028 17.646 13.9286 18.2143 13.9286H27.8571C28.4255 13.9286 28.9705 13.7028 29.3724 13.3009C29.7742 12.8991 30 12.354 30 11.7857V2.14286C30 1.57454 29.7742 1.02949 29.3724 0.627628C28.9705 0.225765 28.4255 0 27.8571 0ZM25.7143 9.10714C25.7143 9.24922 25.6578 9.38548 25.5574 9.48595C25.4569 9.58642 25.3207 9.64286 25.1786 9.64286H20.8929C20.7508 9.64286 20.6145 9.58642 20.514 9.48595C20.4136 9.38548 20.3571 9.24922 20.3571 9.10714V4.82143C20.3571 4.67935 20.4136 4.54309 20.514 4.44262C20.6145 4.34216 20.7508 4.28571 20.8929 4.28571H25.1786C25.3207 4.28571 25.4569 4.34216 25.5574 4.44262C25.6578 4.54309 25.7143 4.67935 25.7143 4.82143V9.10714ZM11.7857 0H2.14286C1.57454 0 1.02949 0.225765 0.627628 0.627628C0.225765 1.02949 0 1.57454 0 2.14286V11.7857C0 12.354 0.225765 12.8991 0.627628 13.3009C1.02949 13.7028 1.57454 13.9286 2.14286 13.9286H11.7857C12.354 13.9286 12.8991 13.7028 13.3009 13.3009C13.7028 12.8991 13.9286 12.354 13.9286 11.7857V2.14286C13.9286 1.57454 13.7028 1.02949 13.3009 0.627628C12.8991 0.225765 12.354 0 11.7857 0ZM9.64286 9.10714C9.64286 9.24922 9.58642 9.38548 9.48595 9.48595C9.38548 9.58642 9.24922 9.64286 9.10714 9.64286H4.82143C4.67935 9.64286 4.54309 9.58642 4.44262 9.48595C4.34216 9.38548 4.28571 9.24922 4.28571 9.10714V4.82143C4.28571 4.67935 4.34216 4.54309 4.44262 4.44262C4.54309 4.34216 4.67935 4.28571 4.82143 4.28571H9.10714C9.24922 4.28571 9.38548 4.34216 9.48595 4.44262C9.58642 4.54309 9.64286 4.67935 9.64286 4.82143V9.10714ZM11.7857 16.0714H2.14286C1.57454 16.0714 1.02949 16.2972 0.627628 16.6991C0.225765 17.1009 0 17.646 0 18.2143V27.8571C0 28.4255 0.225765 28.9705 0.627628 29.3724C1.02949 29.7742 1.57454 30 2.14286 30H11.7857C12.354 30 12.8991 29.7742 13.3009 29.3724C13.7028 28.9705 13.9286 28.4255 13.9286 27.8571V18.2143C13.9286 17.646 13.7028 17.1009 13.3009 16.6991C12.8991 16.2972 12.354 16.0714 11.7857 16.0714ZM9.64286 25.1786C9.64286 25.3207 9.58642 25.4569 9.48595 25.5574C9.38548 25.6578 9.24922 25.7143 9.10714 25.7143H4.82143C4.67935 25.7143 4.54309 25.6578 4.44262 25.5574C4.34216 25.4569 4.28571 25.3207 4.28571 25.1786V20.8929C4.28571 20.7508 4.34216 20.6145 4.44262 20.514C4.54309 20.4136 4.67935 20.3571 4.82143 20.3571H9.10714C9.24922 20.3571 9.38548 20.4136 9.48595 20.514C9.58642 20.6145 9.64286 20.7508 9.64286 20.8929V25.1786Z" fill="url(#paint5_linear_206_226)"/>
</g>
<defs>
<linearGradient id="paint0_linear_206_226" x1="0" y1="15" x2="30" y2="15" gradientUnits="userSpaceOnUse">
<stop stop-color="#00C6FB"/>
<stop offset="1" stop-color="#005BEA"/>
</linearGradient>
<linearGradient id="paint1_linear_206_226" x1="0" y1="15" x2="30" y2="15" gradientUnits="userSpaceOnUse">
<stop stop-color="#00C6FB"/>
<stop offset="1" stop-color="#005BEA"/>
</linearGradient>
<linearGradient id="paint2_linear_206_226" x1="0" y1="15" x2="30" y2="15" gradientUnits="userSpaceOnUse">
<stop stop-color="#00C6FB"/>
<stop offset="1" stop-color="#005BEA"/>
</linearGradient>
<linearGradient id="paint3_linear_206_226" x1="0" y1="15" x2="30" y2="15" gradientUnits="userSpaceOnUse">
<stop stop-color="#00C6FB"/>
<stop offset="1" stop-color="#005BEA"/>
</linearGradient>
<linearGradient id="paint4_linear_206_226" x1="0" y1="15" x2="30" y2="15" gradientUnits="userSpaceOnUse">
<stop stop-color="#00C6FB"/>
<stop offset="1" stop-color="#005BEA"/>
</linearGradient>
<linearGradient id="paint5_linear_206_226" x1="0" y1="15" x2="30" y2="15" gradientUnits="userSpaceOnUse">
<stop stop-color="#00C6FB"/>
<stop offset="1" stop-color="#005BEA"/>
</linearGradient>
<clipPath id="clip0_206_226">
<rect width="30" height="30" fill="white"/>
</clipPath>
</defs>
</svg>
