<svg width="60" height="61" viewBox="0 0 60 61" fill="none" xmlns="http://www.w3.org/2000/svg">
<path fill-rule="evenodd" clip-rule="evenodd" d="M11.0388 0C4.94223 0 0 4.95566 0 11.0688V49.0943C0 55.2074 4.94223 60.163 11.0388 60.163H48.9612C55.0578 60.163 60 55.2074 60 49.0943V11.0688C60 4.95566 55.0578 0 48.9612 0H11.0388Z" fill="url(#paint0_linear_206_227)"/>
<path d="M13.4515 41.6608C13.3772 41.4474 13.339 41.2231 13.3387 40.9971V33.8905C13.3387 33.3473 13.5539 32.8263 13.937 32.4422C14.3201 32.058 14.8397 31.8422 15.3814 31.8422C15.9232 31.8422 16.4427 32.058 16.8258 32.4422C17.2089 32.8263 17.4241 33.3473 17.4241 33.8905V40.0254L21.0193 38.5507C20.8566 38.2989 20.7512 38.0143 20.7106 37.717C20.67 37.4198 20.6951 37.1172 20.7843 36.8308C20.8734 36.5444 21.0244 36.2812 21.2264 36.0599C21.4284 35.8386 21.6766 35.6646 21.9532 35.5504C22.2299 35.4361 22.5283 35.3843 22.8271 35.3986C23.126 35.413 23.418 35.4932 23.6825 35.6335C23.947 35.7738 24.1774 35.9708 24.3574 36.2105C24.5374 36.4501 24.6625 36.7266 24.7239 37.0202L28.0298 35.6569V33.8905C28.0449 33.3584 28.2662 32.8531 28.6469 32.482C29.0276 32.111 29.5376 31.9034 30.0685 31.9034C30.5994 31.9034 31.1093 32.111 31.49 32.482C31.8707 32.8531 32.0921 33.3584 32.1071 33.8905V35.6454L35.413 37.0104C35.4749 36.7172 35.6003 36.4413 35.7805 36.2021C35.9606 35.963 36.1909 35.7665 36.4552 35.6266C36.7195 35.4867 37.0112 35.4068 37.3097 35.3925C37.6083 35.3783 37.9063 35.4301 38.1826 35.5442C38.459 35.6583 38.7069 35.8319 38.9088 36.0529C39.1108 36.2738 39.2618 36.5365 39.3512 36.8225C39.4405 37.1084 39.4661 37.4106 39.426 37.7075C39.386 38.0045 39.2812 38.289 39.1193 38.5409L42.7145 40.0156V33.8905C42.7145 33.3486 42.9292 32.8288 43.3113 32.4456C43.6935 32.0624 44.2118 31.8471 44.7523 31.8471C45.2927 31.8471 45.811 32.0624 46.1932 32.4456C46.5754 32.8288 46.7901 33.3486 46.7901 33.8905V40.9971C46.7888 41.2202 46.7512 41.4416 46.6789 41.6526L58.4106 46.4946V11.163C58.4104 9.92791 58.1673 8.70496 57.6953 7.56414C57.2233 6.42331 56.5316 5.38699 55.6598 4.51448C54.7879 3.64196 53.7531 2.95036 52.6145 2.47924C51.4758 2.00813 50.2557 1.76674 49.024 1.7689H11.1113C9.87992 1.76717 8.66025 2.00889 7.52209 2.48022C6.38392 2.95155 5.34958 3.64324 4.47823 4.51574C3.60689 5.38823 2.91563 6.42441 2.44399 7.56502C1.97235 8.70562 1.72959 9.92827 1.72959 11.163V46.4996L13.4515 41.6608ZM44.731 25.9924C45.1341 25.9924 45.528 26.1122 45.8632 26.3368C46.1983 26.5613 46.4595 26.8804 46.6137 27.2538C46.7679 27.6272 46.8083 28.038 46.7297 28.4344C46.651 28.8308 46.457 29.1948 46.172 29.4806C45.887 29.7664 45.5239 29.961 45.1286 30.0398C44.7333 30.1187 44.3235 30.0782 43.9512 29.9235C43.5788 29.7689 43.2606 29.507 43.0366 29.171C42.8127 28.8349 42.6932 28.4399 42.6932 28.0357C42.6932 27.7674 42.7459 27.5017 42.8483 27.2538C42.9507 27.0059 43.1008 26.7806 43.2901 26.5909C43.4793 26.4011 43.7039 26.2506 43.9512 26.1479C44.1984 26.0453 44.4634 25.9924 44.731 25.9924ZM37.392 16.5917C37.7955 16.5914 38.19 16.7111 38.5256 16.9357C38.8613 17.1603 39.1229 17.4796 39.2775 17.8534C39.4321 18.2271 39.4726 18.6384 39.3939 19.0353C39.3153 19.4321 39.121 19.7966 38.8357 20.0827C38.5504 20.3688 38.1869 20.5636 37.7911 20.6425C37.3953 20.7213 36.9851 20.6807 36.6124 20.5257C36.2397 20.3707 35.9212 20.1084 35.6972 19.7718C35.4732 19.4353 35.3539 19.0397 35.3542 18.6351C35.3542 18.0931 35.5689 17.5734 35.951 17.1902C36.3332 16.807 36.8515 16.5917 37.392 16.5917ZM35.3542 24.4914C35.3542 23.9495 35.5689 23.4298 35.951 23.0466C36.3332 22.6634 36.8515 22.4481 37.392 22.4481C37.9324 22.4481 38.4508 22.6634 38.8329 23.0466C39.2151 23.4298 39.4298 23.9495 39.4298 24.4914V31.5964C39.4298 32.1384 39.2151 32.6581 38.8329 33.0413C38.4508 33.4245 37.9324 33.6398 37.392 33.6398C36.8515 33.6398 36.3332 33.4245 35.951 33.0413C35.5689 32.6581 35.3542 32.1384 35.3542 31.5964V24.4914ZM30.0546 7.19268C30.4575 7.19301 30.8514 7.31312 31.1863 7.53784C31.5212 7.76257 31.7821 8.08181 31.9361 8.45521C32.0901 8.82861 32.1302 9.2394 32.0514 9.63566C31.9726 10.0319 31.7784 10.3959 31.4933 10.6815C31.2083 10.9671 30.8451 11.1615 30.4499 11.2402C30.0546 11.3189 29.645 11.2784 29.2727 11.1237C28.9005 10.969 28.5823 10.7071 28.3585 10.3711C28.1346 10.0351 28.0151 9.64009 28.0151 9.23602C28.0151 8.96755 28.0679 8.70171 28.1704 8.45369C28.2729 8.20568 28.4232 7.98035 28.6126 7.79058C28.802 7.60082 29.0268 7.45034 29.2742 7.34775C29.5217 7.24516 29.7868 7.19247 30.0546 7.19268ZM28.0151 15.0908C28.0302 14.5586 28.2515 14.0534 28.6322 13.6823C29.0129 13.3112 29.5229 13.1037 30.0538 13.1037C30.5847 13.1037 31.0946 13.3112 31.4753 13.6823C31.856 14.0534 32.0774 14.5586 32.0924 15.0908V22.1974C32.0774 22.7295 31.856 23.2348 31.4753 23.6059C31.0946 23.9769 30.5847 24.1845 30.0538 24.1845C29.5229 24.1845 29.0129 23.9769 28.6322 23.6059C28.2515 23.2348 28.0302 22.7295 28.0151 22.1974V15.0908ZM30.0546 25.9924C30.4575 25.9927 30.8514 26.1128 31.1863 26.3376C31.5212 26.5623 31.7821 26.8815 31.9361 27.2549C32.0901 27.6283 32.1302 28.0391 32.0514 28.4354C31.9726 28.8316 31.7784 29.1956 31.4933 29.4812C31.2083 29.7668 30.8451 29.9612 30.4499 30.0399C30.0546 30.1187 29.645 30.0781 29.2727 29.9234C28.9005 29.7687 28.5823 29.5068 28.3585 29.1708C28.1346 28.8348 28.0151 28.4398 28.0151 28.0357C28.0151 27.7673 28.0679 27.5014 28.1704 27.2534C28.2729 27.0054 28.4232 26.7801 28.6126 26.5903C28.802 26.4005 29.0268 26.2501 29.2742 26.1475C29.5217 26.0449 29.7868 25.9922 30.0546 25.9924ZM22.7139 16.5917C23.1174 16.5914 23.5119 16.7111 23.8476 16.9357C24.1832 17.1603 24.4449 17.4796 24.5994 17.8534C24.754 18.2271 24.7945 18.6384 24.7159 19.0353C24.6372 19.4321 24.443 19.7966 24.1576 20.0827C23.8723 20.3688 23.5088 20.5636 23.113 20.6425C22.7173 20.7213 22.3071 20.6807 21.9343 20.5257C21.5616 20.3707 21.2431 20.1084 21.0191 19.7718C20.7952 19.4353 20.6758 19.0397 20.6761 18.6351C20.6761 18.0931 20.8908 17.5734 21.273 17.1902C21.6551 16.807 22.1735 16.5917 22.7139 16.5917ZM20.6761 24.4914C20.6761 23.9495 20.8908 23.4298 21.273 23.0466C21.6551 22.6634 22.1735 22.4481 22.7139 22.4481C23.2544 22.4481 23.7727 22.6634 24.1549 23.0466C24.537 23.4298 24.7517 23.9495 24.7517 24.4914V31.5964C24.7517 32.1384 24.537 32.6581 24.1549 33.0413C23.7727 33.4245 23.2544 33.6398 22.7139 33.6398C22.1735 33.6398 21.6551 33.4245 21.273 33.0413C20.8908 32.6581 20.6761 32.1384 20.6761 31.5964V24.4914ZM15.3765 25.9924C15.7795 25.9924 16.1735 26.1122 16.5086 26.3368C16.8438 26.5613 17.105 26.8804 17.2592 27.2538C17.4134 27.6272 17.4538 28.038 17.3752 28.4344C17.2965 28.8308 17.1024 29.1948 16.8175 29.4806C16.5325 29.7664 16.1694 29.961 15.7741 30.0398C15.3788 30.1187 14.969 30.0782 14.5967 29.9235C14.2243 29.7689 13.9061 29.507 13.6821 29.171C13.4582 28.8349 13.3387 28.4399 13.3387 28.0357C13.3387 27.4938 13.5534 26.9741 13.9356 26.5909C14.3177 26.2077 14.836 25.9924 15.3765 25.9924Z" fill="white"/>
<path fill-rule="evenodd" clip-rule="evenodd" d="M58.3286 47.6519L30.6147 36.2121V58.5791H48.96C54.1341 58.5791 58.3286 54.3732 58.3286 49.185V47.6519ZM29.5019 58.5791V36.2121L1.66887 47.701V49.185C1.66887 54.3732 5.86336 58.5791 11.0375 58.5791H29.5019Z" fill="white"/>
<defs>
<linearGradient id="paint0_linear_206_227" x1="0" y1="30.0815" x2="60" y2="30.0815" gradientUnits="userSpaceOnUse">
<stop stop-color="#00C6FB"/>
<stop offset="1" stop-color="#005BEA"/>
</linearGradient>
</defs>
</svg>
